<svg width="103" height="84" viewBox="0 0 103 84" fill="none" xmlns="http://www.w3.org/2000/svg">
<path d="M98.9099 57.0707V45.2367C98.9099 44.6853 98.8631 44.1391 98.7642 43.6034C98.6654 43.0624 98.5146 42.537 98.3169 42.022C98.1192 41.507 97.8799 41.0181 97.5938 40.5499C97.3025 40.0818 96.9748 39.6448 96.6055 39.2391C96.2362 38.8281 95.8356 38.4588 95.3987 38.1259C94.9617 37.793 94.4988 37.5069 94.0046 37.2572C93.5156 37.0127 93.0059 36.8098 92.4753 36.659C91.9499 36.5081 91.4089 36.4041 90.8627 36.3521L81.7856 35.4418L73.1091 20.2682C72.4121 19.0562 71.5746 17.9586 70.5862 16.9703C69.6031 15.9767 68.5055 15.1341 67.2987 14.4318C66.0919 13.7296 64.8123 13.199 63.465 12.8349C62.1125 12.4707 60.7393 12.2887 59.3452 12.2887H39.5629C39.5629 11.909 39.4484 11.5708 39.2143 11.2743C38.9803 10.9778 38.6838 10.7802 38.3144 10.6917C37.4821 10.4785 36.6915 10.156 35.9476 9.72421C35.209 9.29246 34.5379 8.76188 33.9449 8.14287C33.3519 7.51865 32.8578 6.82682 32.4572 6.06216C32.0619 5.3027 31.7758 4.50163 31.6041 3.65894L31.2868 2.0724C31.2088 1.69267 31.0163 1.37536 30.7146 1.12567C30.4129 0.875988 30.0644 0.756348 29.6743 0.756348C29.2789 0.756348 28.9304 0.875988 28.6287 1.12567C28.327 1.37536 28.1346 1.69267 28.0565 2.0724L27.7392 3.64853C27.5676 4.49122 27.2867 5.2975 26.8861 6.05696C26.4908 6.82161 25.9914 7.51345 25.3984 8.13246C24.8054 8.75668 24.1396 9.28205 23.3957 9.719C22.6519 10.1507 21.8612 10.4733 21.0289 10.6813C20.6648 10.775 20.3631 10.9674 20.129 11.2691C19.9001 11.5656 19.7805 11.9037 19.7805 12.2835C19.7805 12.658 19.9001 12.9961 20.129 13.2926C20.3631 13.5943 20.6648 13.7868 21.0289 13.8804C22.2826 14.1977 23.4165 14.7543 24.4361 15.5502C25.4556 16.3513 26.2671 17.3188 26.8705 18.4632C26.7925 18.5932 26.7041 18.7077 26.626 18.8377L17.112 35.4626L9.64745 36.3989C8.77355 36.5081 7.94127 36.7682 7.161 37.1844C6.38074 37.5953 5.69931 38.1311 5.11671 38.7969C4.52891 39.4575 4.08155 40.2014 3.76945 41.0285C3.45734 41.8504 3.29609 42.7035 3.29609 43.5878V57.0707C2.7447 57.2632 2.24533 57.5441 1.79798 57.9134C1.35062 58.288 0.976096 58.7249 0.679595 59.2243C0.388295 59.7289 0.185425 60.2646 0.0813908 60.8368C-0.022646 61.409 -0.0278468 61.9812 0.0709873 62.5586C0.169821 63.1308 0.367488 63.6718 0.653586 64.1764C0.944885 64.6809 1.31421 65.1179 1.76156 65.4924C2.20372 65.8669 2.70309 66.1582 3.24927 66.3559C3.79546 66.5536 4.36245 66.6524 4.94505 66.6524H11.5409C11.7594 66.6524 11.9674 66.6108 12.1703 66.5276C12.3732 66.4443 12.55 66.3247 12.7061 66.1687C12.8569 66.0126 12.9766 65.8357 13.0598 65.6329C13.143 65.4352 13.1899 65.2219 13.1899 65.0035V63.3545H16.6178C16.7115 64.0359 16.8727 64.7018 17.086 65.3572C17.3045 66.0074 17.5802 66.6368 17.9079 67.2402C18.2356 67.8436 18.6205 68.4106 19.0471 68.9464C19.4788 69.4822 19.9574 69.9711 20.4775 70.4237C20.9977 70.8711 21.5491 71.2716 22.1421 71.6253C22.7351 71.9738 23.3541 72.2703 23.9939 72.5096C24.639 72.7489 25.2996 72.931 25.9758 73.0558C26.6521 73.1754 27.3387 73.2379 28.0253 73.2379C28.712 73.2379 29.3934 73.1754 30.0696 73.0558C30.7458 72.931 31.4065 72.7489 32.0515 72.5096C32.6965 72.2703 33.3155 71.9738 33.9033 71.6253C34.4963 71.2716 35.0529 70.8711 35.5731 70.4237C36.0933 69.9711 36.5666 69.4822 36.9984 68.9464C37.4301 68.4106 37.8099 67.8436 38.1376 67.2402C38.4705 66.6368 38.741 66.0074 38.9594 65.3572C39.1779 64.7018 39.334 64.0359 39.4328 63.3545H62.7732C62.872 64.0359 63.0281 64.7018 63.2465 65.3572C63.465 66.0074 63.7355 66.6368 64.0632 67.2402C64.3961 67.8436 64.7758 68.4106 65.2076 68.9464C65.6393 69.4822 66.1127 69.9711 66.6329 70.4237C67.1531 70.8711 67.7096 71.2716 68.2975 71.6253C68.8905 71.9738 69.5095 72.2703 70.1545 72.5096C70.7995 72.7489 71.4601 72.931 72.1364 73.0558C72.8126 73.1754 73.494 73.2379 74.1807 73.2379C74.8673 73.2379 75.5487 73.1754 76.225 73.0558C76.9064 72.931 77.567 72.7489 78.2068 72.5096C78.8518 72.2703 79.4709 71.9738 80.0639 71.6253C80.6517 71.2716 81.2083 70.8711 81.7284 70.4237C82.2486 69.9711 82.722 69.4822 83.1537 68.9464C83.5855 68.4106 83.9652 67.8436 84.2981 67.2402C84.6258 66.6368 84.9015 66.0074 85.1148 65.3572C85.3333 64.7018 85.4893 64.0359 85.5881 63.3545H89.0161V65.0035C89.0161 65.2219 89.0577 65.4352 89.141 65.6329C89.2242 65.8357 89.3438 66.0126 89.4999 66.1687C89.6559 66.3247 89.8328 66.4443 90.0357 66.5276C90.2385 66.6108 90.4466 66.6524 90.6651 66.6524H97.2609C97.8435 66.6524 98.4053 66.5536 98.9567 66.3559C99.5029 66.1582 99.9971 65.8669 100.444 65.4924C100.892 65.1179 101.261 64.6809 101.547 64.1764C101.838 63.6718 102.031 63.1308 102.13 62.5586C102.229 61.9812 102.229 61.409 102.125 60.8368C102.021 60.2646 101.818 59.7289 101.526 59.2243C101.23 58.7249 100.855 58.288 100.408 57.9134C99.9554 57.5441 99.4561 57.2632 98.9099 57.0707ZM95.612 45.2367V46.7504C94.5768 46.5944 93.5781 46.3083 92.6209 45.8817C91.6586 45.4552 90.7743 44.9142 89.9628 44.2484C89.1514 43.5878 88.4439 42.8283 87.8405 41.9752C87.2319 41.1221 86.7481 40.2014 86.3892 39.2183L90.535 39.6292C91.2321 39.6968 91.8927 39.8893 92.5169 40.2014C93.1411 40.5187 93.6873 40.9348 94.1555 41.4498C94.6288 41.97 94.9878 42.5526 95.2374 43.208C95.4871 43.8582 95.612 44.5345 95.612 45.2367ZM29.6743 7.84116C30.6834 9.67219 32.0723 11.1547 33.8305 12.2887C32.0723 13.4227 30.6834 14.9052 29.6743 16.7362C28.6599 14.9052 27.2711 13.4227 25.5129 12.2887C27.2711 11.1547 28.6599 9.67219 29.6743 7.84116ZM28.1658 22.7703C28.2958 23.1084 28.5143 23.3789 28.8212 23.5713C29.1333 23.7638 29.4662 23.8418 29.8303 23.8106C30.1945 23.7742 30.5118 23.639 30.7823 23.3945C31.0528 23.15 31.2192 22.8483 31.2868 22.4894L31.6041 20.9132C31.9527 19.1966 32.7277 17.7089 33.9345 16.4449C35.1986 15.8727 36.525 15.5866 37.9139 15.5814H59.3452C60.4532 15.5814 61.5403 15.7271 62.6067 16.0184C63.6731 16.3044 64.6874 16.7258 65.6445 17.2824C66.6017 17.8338 67.4704 18.5048 68.2506 19.2903C69.0309 20.0705 69.6967 20.9444 70.2429 21.9016L77.9363 35.3533H75.0389L65.8838 22.2813C65.1348 21.2149 64.1828 20.3826 63.0281 19.7792C61.8733 19.181 60.6456 18.8793 59.3452 18.8793H39.5629C38.2624 18.8793 37.0348 19.181 35.88 19.7792C34.7252 20.3826 33.7733 21.2149 33.0242 22.2813L23.8691 35.3533H20.9717L28.1658 22.7703ZM27.8953 35.3533L35.7239 24.1695C36.1661 23.5453 36.7227 23.0564 37.3989 22.7026C38.0751 22.3489 38.7982 22.1721 39.5629 22.1721H47.8077V35.3533H27.8953ZM51.1004 22.1721H59.3452C60.1099 22.1721 60.8277 22.3489 61.5091 22.7026C62.1854 23.0564 62.742 23.5453 63.1841 24.1695L70.6955 34.8904L63.7823 30.2816L64.2661 27.379L61.015 26.8328L59.5949 35.3533H51.1004V22.1721ZM63.1893 33.85L65.4417 35.3533H62.9396L63.1893 33.85ZM6.59401 46.8805H11.5409C11.7594 46.8805 11.9674 46.9273 12.1703 47.0105C12.3732 47.0937 12.55 47.2134 12.7061 47.3642C12.8569 47.5203 12.9766 47.6972 13.0598 47.9C13.143 48.1029 13.1899 48.311 13.1899 48.5294C13.1899 48.7479 13.143 48.9612 13.0598 49.1589C12.9766 49.3617 12.8569 49.5386 12.7061 49.6946C12.55 49.8507 12.3732 49.9703 12.1703 50.0536C11.9674 50.1368 11.7594 50.1784 11.5409 50.1784H6.59401V46.8805ZM9.89194 63.3545H4.94505C4.72658 63.3545 4.5185 63.3129 4.31563 63.2297C4.11277 63.1464 3.93591 63.0268 3.77985 62.8759C3.6238 62.7199 3.50416 62.543 3.42093 62.3401C3.3377 62.1373 3.29609 61.9292 3.29609 61.7107C3.29609 61.4923 3.3377 61.279 3.42093 61.0813C3.50416 60.8784 3.6238 60.7016 3.77985 60.5455C3.93591 60.3895 4.11277 60.2698 4.31563 60.1866C4.5185 60.1034 4.72658 60.0618 4.94505 60.0618H9.89194V63.3545ZM28.0253 69.9451C27.4843 69.9451 26.9486 69.8931 26.418 69.7891C25.8874 69.6851 25.3672 69.529 24.8678 69.3209C24.3685 69.1129 23.8951 68.858 23.4426 68.5563C22.9952 68.2598 22.5791 67.9164 22.1941 67.5315C21.8144 67.1518 21.4711 66.7356 21.1694 66.2883C20.8677 65.8357 20.618 65.3624 20.4099 64.863C20.2019 64.3636 20.0458 63.8487 19.9418 63.3181C19.8325 62.7875 19.7805 62.2517 19.7805 61.7107C19.7805 61.1697 19.8325 60.634 19.9418 60.1034C20.0458 59.5728 20.2019 59.0578 20.4099 58.5585C20.618 58.0591 20.8677 57.5805 21.1694 57.1332C21.4711 56.6858 21.8144 56.2697 22.1941 55.8847C22.5791 55.505 22.9952 55.1617 23.4426 54.86C23.8951 54.5583 24.3685 54.3086 24.8678 54.1005C25.3672 53.8925 25.8874 53.7364 26.418 53.6324C26.9486 53.5231 27.4843 53.4711 28.0253 53.4711C28.5663 53.4711 29.1021 53.5231 29.6327 53.6324C30.1632 53.7364 30.6782 53.8925 31.1776 54.1005C31.677 54.3086 32.1555 54.5583 32.6029 54.86C33.0554 55.1617 33.4716 55.505 33.8513 55.8847C34.2362 56.2697 34.5744 56.6858 34.8761 57.1332C35.1778 57.5805 35.4326 58.0591 35.6407 58.5585C35.8436 59.0578 35.9996 59.5728 36.1089 60.1034C36.2129 60.634 36.2649 61.1697 36.2649 61.7107C36.2649 62.2517 36.2129 62.7875 36.1037 63.3181C35.9996 63.8435 35.8436 64.3584 35.6355 64.8578C35.4274 65.3572 35.1726 65.8357 34.8761 66.2831C34.5744 66.7304 34.231 67.1466 33.8513 67.5315C33.4664 67.9112 33.0502 68.2546 32.6029 68.5563C32.1503 68.858 31.677 69.1077 31.1776 69.3157C30.6782 69.5238 30.1632 69.6798 29.6327 69.7891C29.1021 69.8931 28.5663 69.9451 28.0253 69.9451ZM74.1807 69.9451C73.6397 69.9451 73.1039 69.8931 72.5733 69.7891C72.0427 69.6851 71.5278 69.529 71.0284 69.3209C70.529 69.1129 70.0504 68.858 69.6031 68.5563C69.1505 68.2598 68.7344 67.9164 68.3547 67.5315C67.9697 67.1518 67.6264 66.7356 67.3299 66.2883C67.0282 65.8357 66.7733 65.3624 66.5653 64.863C66.3572 64.3636 66.2011 63.8487 66.0971 63.3181C65.9931 62.7875 65.941 62.2517 65.941 61.7107C65.941 61.1697 65.9931 60.634 66.0971 60.1034C66.2011 59.5728 66.3572 59.0578 66.5653 58.5585C66.7733 58.0591 67.0282 57.5805 67.3299 57.1332C67.6264 56.6858 67.9697 56.2697 68.3547 55.8847C68.7344 55.505 69.1505 55.1617 69.6031 54.86C70.0504 54.5583 70.529 54.3086 71.0284 54.1005C71.5278 53.8925 72.0427 53.7364 72.5733 53.6324C73.1039 53.5231 73.6397 53.4711 74.1807 53.4711C74.7216 53.4711 75.2574 53.5231 75.788 53.6324C76.3186 53.7364 76.8336 53.8925 77.3329 54.1005C77.8375 54.3086 78.3109 54.5583 78.7582 54.86C79.2108 55.1617 79.6269 55.505 80.0118 55.8847C80.3916 56.2697 80.7349 56.6858 81.0366 57.1332C81.3331 57.5805 81.588 58.0591 81.7961 58.5585C82.0041 59.0578 82.1602 59.5728 82.2642 60.1034C82.3682 60.634 82.4255 61.1697 82.4255 61.7107C82.4203 62.2517 82.3682 62.7875 82.2642 63.3181C82.155 63.8435 81.9989 64.3584 81.7909 64.8578C81.588 65.3572 81.3331 65.8357 81.0314 66.2831C80.7297 66.7304 80.3916 67.1466 80.0066 67.5315C79.6217 67.9112 79.2056 68.2546 78.7582 68.5563C78.3057 68.858 77.8323 69.1077 77.3329 69.3157C76.8336 69.5238 76.3186 69.6798 75.788 69.7891C75.2574 69.8931 74.7216 69.9451 74.1807 69.9451ZM89.0161 58.4128V60.0618H85.5881C85.4893 59.3803 85.3333 58.7145 85.1148 58.0643C84.9015 57.4141 84.6258 56.7847 84.2981 56.1812C83.9652 55.5778 83.5855 55.0108 83.1537 54.4751C82.722 53.9393 82.2486 53.4451 81.7284 52.9978C81.2083 52.5452 80.6517 52.1447 80.0639 51.7962C79.4709 51.4424 78.8518 51.1511 78.2068 50.9066C77.567 50.6674 76.9064 50.4853 76.225 50.3657C75.5487 50.246 74.8673 50.1836 74.1807 50.1836C73.494 50.1836 72.8126 50.246 72.1364 50.3657C71.4601 50.4853 70.7995 50.6674 70.1545 50.9066C69.5095 51.1511 68.8905 51.4424 68.2975 51.7962C67.7096 52.1447 67.1531 52.5452 66.6329 52.9978C66.1127 53.4451 65.6393 53.9393 65.2076 54.4751C64.7758 55.0108 64.3961 55.5778 64.0632 56.1812C63.7355 56.7847 63.465 57.4141 63.2465 58.0643C63.0281 58.7145 62.872 59.3803 62.7732 60.0618H39.4328C39.334 59.3803 39.1779 58.7145 38.9594 58.0643C38.741 57.4141 38.4705 56.7847 38.1376 56.1812C37.8099 55.5778 37.4301 55.0108 36.9984 54.4751C36.5666 53.9393 36.0933 53.4451 35.5731 52.9978C35.0529 52.5452 34.4963 52.1447 33.9033 51.7962C33.3155 51.4424 32.6965 51.1511 32.0515 50.9066C31.4065 50.6674 30.7458 50.4853 30.0696 50.3657C29.3934 50.246 28.712 50.1836 28.0253 50.1836C27.3387 50.1836 26.6521 50.246 25.9758 50.3657C25.2996 50.4853 24.639 50.6674 23.9939 50.9066C23.3541 51.1511 22.7351 51.4424 22.1421 51.7962C21.5491 52.1447 20.9977 52.5452 20.4775 52.9978C19.9574 53.4451 19.4788 53.9393 19.0471 54.4751C18.6205 55.0108 18.2356 55.5778 17.9079 56.1812C17.5802 56.7847 17.3045 57.4141 17.086 58.0643C16.8727 58.7145 16.7115 59.3803 16.6178 60.0618H13.1899V58.4128C13.1899 58.1943 13.143 57.9863 13.0598 57.7834C12.9766 57.5805 12.8569 57.4037 12.7061 57.2476C12.55 57.0968 12.3732 56.9771 12.1703 56.8939C11.9674 56.8107 11.7594 56.769 11.5409 56.769H6.59401V53.4711H11.5409C12.1963 53.4711 12.8257 53.3463 13.4291 53.0966C14.0377 52.8469 14.5735 52.488 15.0365 52.025C15.4994 51.5621 15.8584 51.0263 16.1081 50.4229C16.3577 49.8143 16.4826 49.1849 16.4826 48.5294C16.4826 47.874 16.3577 47.2446 16.1081 46.6412C15.8584 46.0326 15.4994 45.4968 15.0365 45.0338C14.5735 44.5709 14.0377 44.2172 13.4291 43.9623C12.8257 43.7126 12.1963 43.5878 11.5409 43.5878H6.59401C6.59401 43.1092 6.67724 42.641 6.8489 42.1885C7.02056 41.7411 7.26504 41.3354 7.58235 40.9765C7.89966 40.6123 8.27418 40.321 8.70073 40.0974C9.12727 39.8685 9.57983 39.728 10.0532 39.6656L18.2356 38.6461H80.6933L82.8468 38.8593C83.2161 40.3314 83.7935 41.7151 84.5842 43.0104C85.3749 44.3056 86.3372 45.4552 87.4816 46.4591C88.6208 47.4579 89.8848 48.2693 91.2685 48.8832C92.6574 49.5022 94.1034 49.8975 95.612 50.0744V56.769H90.6651C90.4466 56.769 90.2385 56.8107 90.0357 56.8939C89.8328 56.9771 89.6559 57.0968 89.4999 57.2476C89.3438 57.4037 89.2242 57.5805 89.141 57.7834C89.0577 57.9863 89.0161 58.1943 89.0161 58.4128ZM97.2609 63.3545H92.314V60.0618H97.2609C97.4794 60.0618 97.6875 60.1034 97.8903 60.1866C98.0932 60.2698 98.2701 60.3895 98.4261 60.5455C98.5822 60.7016 98.6966 60.8784 98.785 61.0813C98.8683 61.279 98.9099 61.4923 98.9099 61.7107C98.9099 61.9292 98.8683 62.1373 98.785 62.3401C98.6966 62.543 98.5822 62.7199 98.4261 62.8759C98.2701 63.0268 98.0932 63.1464 97.8903 63.2297C97.6875 63.3129 97.4794 63.3545 97.2609 63.3545Z" fill="#0E0E0E"/>
<path d="M52.749 41.9388H59.3449V45.2367H52.749V41.9388Z" fill="#0E0E0E"/>
<path d="M26.376 41.9388H32.9666V45.2367H26.376V41.9388Z" fill="#0E0E0E"/>
<path d="M74.1803 56.769C73.5249 56.769 72.8954 56.8939 72.2868 57.1436C71.6834 57.3933 71.1477 57.7522 70.6847 58.2151C70.2217 58.6781 69.8628 59.2139 69.6131 59.8173C69.3582 60.4259 69.2334 61.0553 69.2334 61.7107C69.2334 62.3662 69.3582 62.9956 69.6131 63.599C69.8628 64.2076 70.2217 64.7382 70.6847 65.2063C71.1477 65.6693 71.6834 66.023 72.2868 66.2779C72.8954 66.5276 73.5249 66.6524 74.1803 66.6524C74.8357 66.6524 75.4651 66.5276 76.0737 66.2779C76.6771 66.023 77.2129 65.6693 77.6759 65.2063C78.1388 64.7382 78.4978 64.2076 78.7474 63.599C79.0023 62.9956 79.1272 62.3662 79.1272 61.7107C79.1272 61.0553 79.0023 60.4259 78.7474 59.8173C78.4978 59.2139 78.1388 58.6781 77.6759 58.2151C77.2129 57.7522 76.6771 57.3933 76.0737 57.1436C75.4651 56.8939 74.8357 56.769 74.1803 56.769ZM74.1803 63.3545C73.9618 63.3545 73.7537 63.3129 73.5509 63.2296C73.348 63.1464 73.1711 63.0268 73.0151 62.8759C72.859 62.7199 72.7394 62.543 72.6562 62.3401C72.5729 62.1373 72.5313 61.9292 72.5313 61.7107C72.5313 61.4923 72.5729 61.279 72.6562 61.0813C72.7394 60.8784 72.859 60.7016 73.0151 60.5455C73.1711 60.3895 73.348 60.2698 73.5509 60.1866C73.7537 60.1034 73.9618 60.0618 74.1803 60.0618C74.3988 60.0618 74.612 60.1034 74.8097 60.1866C75.0126 60.2698 75.1894 60.3895 75.3455 60.5455C75.5015 60.7016 75.6212 60.8784 75.7044 61.0813C75.7876 61.279 75.8292 61.4923 75.8292 61.7107C75.8292 61.9292 75.7876 62.1373 75.7044 62.3401C75.6212 62.543 75.5015 62.7199 75.3455 62.8759C75.1894 63.0268 75.0126 63.1464 74.8097 63.2296C74.612 63.3129 74.3988 63.3545 74.1803 63.3545Z" fill="#0E0E0E"/>
<path d="M28.025 56.769C27.3696 56.769 26.735 56.8939 26.1316 57.1436C25.523 57.3933 24.9924 57.7522 24.5242 58.2151C24.0613 58.6781 23.7075 59.2139 23.4527 59.8173C23.203 60.4259 23.0781 61.0553 23.0781 61.7107C23.0781 62.3662 23.203 62.9956 23.4527 63.599C23.7075 64.2076 24.0613 64.7382 24.5242 65.2063C24.9924 65.6693 25.523 66.023 26.1316 66.2779C26.735 66.5276 27.3696 66.6524 28.025 66.6524C28.6804 66.6524 29.3098 66.5276 29.9185 66.2779C30.5219 66.023 31.0576 65.6693 31.5206 65.2063C31.9836 64.7382 32.3425 64.2076 32.5922 63.599C32.8419 62.9956 32.9667 62.3662 32.9667 61.7107C32.9667 61.0553 32.8419 60.4259 32.5922 59.8173C32.3425 59.2139 31.9836 58.6781 31.5206 58.2151C31.0576 57.7522 30.5219 57.3933 29.9185 57.1436C29.3098 56.8939 28.6804 56.769 28.025 56.769ZM28.025 63.3545C27.8065 63.3545 27.5933 63.3129 27.3904 63.2296C27.1927 63.1464 27.0107 63.0268 26.8598 62.8759C26.7038 62.7199 26.5841 62.543 26.5009 62.3401C26.4177 62.1373 26.376 61.9292 26.376 61.7107C26.376 61.4923 26.4177 61.279 26.5009 61.0813C26.5841 60.8784 26.7038 60.7016 26.8598 60.5455C27.0107 60.3895 27.1927 60.2698 27.3904 60.1866C27.5933 60.1034 27.8065 60.0618 28.025 60.0618C28.2435 60.0618 28.4516 60.1034 28.6544 60.1866C28.8573 60.2698 29.0342 60.3895 29.1902 60.5455C29.3411 60.7016 29.4607 60.8784 29.5439 61.0813C29.6324 61.279 29.674 61.4923 29.674 61.7107C29.674 61.9292 29.6324 62.1373 29.5439 62.3401C29.4607 62.543 29.3411 62.7199 29.1902 62.8759C29.0342 63.0268 28.8573 63.1464 28.6544 63.2296C28.4516 63.3129 28.2435 63.3545 28.025 63.3545Z" fill="#0E0E0E"/>
<path d="M55.6517 80.0834L56.099 81.878C56.1875 82.2473 56.3851 82.5438 56.6816 82.7779C56.9833 83.012 57.3215 83.1264 57.696 83.1264C58.0757 83.1264 58.4138 83.012 58.7155 82.7779C59.012 82.5438 59.2045 82.2473 59.2981 81.878L59.7455 80.0886C59.8703 79.5788 60.0784 79.1054 60.3593 78.6685C60.6454 78.2316 60.9939 77.8518 61.4048 77.5293C61.8158 77.2068 62.2683 76.9623 62.7625 76.7907C63.2567 76.619 63.7665 76.5358 64.2918 76.5358C64.5103 76.5358 64.7184 76.4942 64.9212 76.4109C65.1241 76.3277 65.301 76.2081 65.457 76.052C65.6079 75.9012 65.7275 75.7191 65.8108 75.5214C65.8992 75.3186 65.9408 75.1053 65.9408 74.8868C65.9408 74.6683 65.8992 74.4603 65.8108 74.2574C65.7275 74.0545 65.6079 73.8777 65.457 73.7216C65.301 73.5708 65.1241 73.4511 64.9212 73.3679C64.7184 73.2847 64.5103 73.2431 64.2918 73.2431C63.7665 73.2431 63.2567 73.1546 62.7625 72.9882C62.2683 72.8165 61.8158 72.572 61.4048 72.2495C60.9939 71.927 60.6454 71.5473 60.3593 71.1103C60.0732 70.6734 59.8703 70.2 59.7455 69.6902L59.2929 67.9008C59.2045 67.5315 59.0068 67.235 58.7103 67.0009C58.4138 66.7668 58.0757 66.6524 57.696 66.6524C57.3163 66.6524 56.9781 66.7668 56.6816 67.0009C56.3799 67.235 56.1875 67.5315 56.0938 67.9008L55.6465 69.6954C55.5216 70.2 55.3136 70.6734 55.0327 71.1103C54.7466 71.5473 54.3981 71.927 53.9871 72.2495C53.5762 72.572 53.1236 72.8165 52.6295 72.9882C52.1353 73.1546 51.6255 73.2431 51.1001 73.2431C50.8817 73.2431 50.6736 73.2847 50.4707 73.3679C50.2679 73.4511 50.091 73.5708 49.9349 73.7216C49.7841 73.8777 49.6644 74.0545 49.5812 74.2574C49.498 74.4603 49.4512 74.6683 49.4512 74.8868C49.4512 75.1053 49.498 75.3186 49.5812 75.5214C49.6644 75.7191 49.7841 75.9012 49.9349 76.052C50.091 76.2081 50.2679 76.3277 50.4707 76.4109C50.6736 76.4942 50.8817 76.5358 51.1001 76.5358C51.6255 76.5358 52.1353 76.619 52.6295 76.7907C53.1236 76.9571 53.5762 77.2068 53.9871 77.5293C54.3981 77.8466 54.7466 78.2264 55.0327 78.6685C55.3188 79.1054 55.5216 79.5788 55.6517 80.0834ZM57.696 73.061C58.1745 73.7632 58.7571 74.3718 59.4282 74.8868C58.7571 75.407 58.1745 76.0156 57.696 76.7178C57.2174 76.0156 56.64 75.407 55.969 74.8868C56.64 74.3718 57.2174 73.758 57.696 73.061Z" fill="#0E0E0E"/>
</svg>
