<svg width="93" height="80" viewBox="0 0 93 80" fill="none" xmlns="http://www.w3.org/2000/svg">
<path d="M15.9642 70.1168C14.3933 70.1168 13.1917 70.4757 12.3802 71.1884C11.4751 71.9791 11.0069 73.2483 10.9809 74.9545C10.9705 75.6775 11.2462 76.3538 11.7508 76.8635C12.2501 77.3733 12.916 77.649 13.6286 77.649H47.4193C48.881 77.649 50.067 76.463 50.067 75.0065V72.2131C50.067 70.6318 49.3596 69.1545 48.1268 68.161C46.894 67.1674 45.297 66.7877 43.7521 67.1258C35.3356 68.9412 23.9281 70.9491 17.3739 70.2001C16.8745 70.1428 16.4064 70.1168 15.9642 70.1168ZM47.4193 79.6517H13.6286C12.375 79.6517 11.1994 79.1627 10.3203 78.2732C9.43598 77.3785 8.95742 76.1873 8.97303 74.9285C9.00944 72.6293 9.70648 70.8659 11.0537 69.6851C12.5414 68.3794 14.7418 67.8853 17.6028 68.2078C24.2194 68.9672 36.558 66.6264 43.3255 65.1647C45.4739 64.7018 47.6794 65.2272 49.3856 66.6004C51.097 67.9789 52.0749 70.0232 52.0749 72.2131V75.0065C52.0749 77.571 49.989 79.6517 47.4193 79.6517Z" fill="#0E0E0E"/>
<path d="M47.311 75.896C46.7544 75.896 46.3071 75.4486 46.3071 74.8972V72.2131C46.3071 71.308 45.4904 70.5954 44.5489 70.793C39.6176 71.8594 35.0765 72.6865 31.0503 73.2483C30.5041 73.3263 29.9943 72.9414 29.9163 72.3952C29.8383 71.849 30.2232 71.3392 30.7694 71.2664C34.7487 70.7098 39.2379 69.8931 44.1223 68.8372C44.372 68.7852 44.6217 68.7592 44.8662 68.7592C46.7701 68.7592 48.315 70.3093 48.315 72.2131V74.8972C48.315 75.4486 47.8624 75.896 47.311 75.896Z" fill="#0E0E0E"/>
<path d="M9.93032 72.0415C9.80548 71.823 6.88728 66.6524 4.21877 58.5637C1.75313 51.0939 -0.925784 39.6604 0.312238 27.6079C0.353853 27.223 0.608739 26.9005 0.967662 26.7652C1.33179 26.6352 1.73752 26.7236 2.01322 26.9941C2.2629 27.2386 8.19813 33.049 13.2438 41.1897C20.0218 52.1135 21.8112 61.9396 18.404 69.607L16.5678 68.8008C23.0232 54.2566 7.22019 35.5094 2.12766 30.0059C0.754389 51.5361 11.5637 70.8555 11.6781 71.0531L9.93032 72.0415Z" fill="#0E0E0E"/>
<path d="M14.9977 65.6902C14.9353 65.6902 14.8677 65.685 14.8 65.6694C14.2539 65.5601 13.9053 65.0295 14.0146 64.4886C15.4295 57.5754 11.705 49.6479 8.33944 44.2172C7.09101 42.2094 5.66052 40.1547 4.07918 38.1156C3.74107 37.6786 3.8243 37.0492 4.26124 36.7111C4.7034 36.373 5.33281 36.4562 5.67093 36.8931C7.28868 38.9843 8.76078 41.0962 10.0456 43.1665C13.6036 48.904 17.5258 57.3309 15.9808 64.8891C15.8872 65.3624 15.4659 65.6902 14.9977 65.6902Z" fill="#0E0E0E"/>
<path d="M9.32263 36.2949L7.4656 35.5302C8.52156 32.9762 10.8936 25.6937 9.21339 22.7183C8.82326 22.0264 8.24066 21.6415 7.38757 21.5115C6.51367 21.3762 5.75942 21.5583 5.07798 22.0629C2.91925 23.665 2.31584 27.8056 2.30544 27.8472L0.318359 27.5715C0.344369 27.3687 1.04141 22.5622 3.87637 20.4555C4.99475 19.6232 6.27959 19.3163 7.69447 19.5296C9.14057 19.7533 10.2746 20.5179 10.9612 21.7351C13.4216 26.089 9.74918 35.265 9.32263 36.2949Z" fill="#0E0E0E"/>
<path d="M6.76837 29.1893C6.70595 29.1893 6.64873 29.1841 6.58631 29.1737C6.04012 29.0749 5.6812 28.5547 5.78003 28.0085C6.21178 25.6365 5.9673 24.695 5.91008 24.5285C5.73842 24.0031 6.02972 23.4413 6.5551 23.2697C7.08568 23.098 7.64747 23.3841 7.81913 23.9095C8.00119 24.4609 8.23007 25.7665 7.75671 28.3674C7.66828 28.8512 7.24173 29.1893 6.76837 29.1893Z" fill="#0E0E0E"/>
<path d="M67.5557 65.4821C67.0043 65.4821 66.5518 65.0347 66.5518 64.4833C66.5518 61.3675 68.2371 58.4545 70.9473 56.8888C71.4258 56.6079 72.0396 56.7743 72.3205 57.2529C72.5962 57.7262 72.435 58.34 71.9564 58.6209C69.8601 59.833 68.5596 62.0749 68.5596 64.4833C68.5596 65.0347 68.1123 65.4821 67.5557 65.4821Z" fill="#0E0E0E"/>
<path d="M68.4349 76.4942H66.3438V74.4915H68.4349V76.4942Z" fill="#0E0E0E"/>
<path d="M71.9515 76.4942H69.8604V74.4915H71.9515V76.4942Z" fill="#0E0E0E"/>
<path d="M59.8204 77.649H62.286V69.4979H59.8204V77.649ZM63.29 79.6517H58.8164C58.2599 79.6517 57.8125 79.2044 57.8125 78.653V68.4991C57.8125 67.9425 58.2599 67.4952 58.8164 67.4952H63.29C63.8466 67.4952 64.2939 67.9425 64.2939 68.4991V78.653C64.2939 79.2044 63.8466 79.6517 63.29 79.6517Z" fill="#0E0E0E"/>
<path d="M88.4044 77.649H90.8752V69.4979H88.4044V77.649ZM91.8792 79.6517H87.4004C86.849 79.6517 86.3965 79.2044 86.3965 78.653V68.4991C86.3965 67.9425 86.849 67.4952 87.4004 67.4952H91.8792C92.4305 67.4952 92.8831 67.9425 92.8831 68.4991V78.653C92.8831 79.2044 92.4305 79.6517 91.8792 79.6517Z" fill="#0E0E0E"/>
<path d="M26.774 52.5869H43.2168L42.01 49.3306H27.9756L26.774 52.5869ZM44.6577 54.5896H25.3331C25.0002 54.5896 24.6933 54.4283 24.506 54.163C24.3188 53.8925 24.2772 53.5492 24.3916 53.2423L26.3319 47.9833C26.4827 47.5932 26.8572 47.3279 27.2786 47.3279H42.7122C43.1336 47.3279 43.5081 47.5932 43.6538 47.9833L45.5992 53.2423C45.7137 53.5492 45.6668 53.8925 45.4796 54.163C45.2923 54.4283 44.9854 54.5896 44.6577 54.5896Z" fill="#0E0E0E"/>
<path d="M64.2937 77.649H86.396V64.4833C86.396 59.7913 83.4154 55.6039 78.9731 54.0641C78.5726 53.9237 78.2969 53.544 78.2969 53.1226V49.034H77.2305C76.6739 49.034 76.2266 48.5867 76.2266 48.0353V32.2271C76.2266 27.4415 72.32 23.5505 67.524 23.5505H42.8156C38.0195 23.5505 34.113 27.4415 34.113 32.2271V44.4513C34.113 45.0026 33.6656 45.45 33.1091 45.45H32.7969V47.3278H37.1872V45.45H36.8751C36.3185 45.45 35.8712 45.0026 35.8712 44.4513V32.2271C35.8712 28.409 38.9871 25.3035 42.8156 25.3035H67.524C71.3525 25.3035 74.4684 28.409 74.4684 32.2271V48.0353C74.4684 48.5867 74.021 49.034 73.4644 49.034H72.3928V53.1226C72.3928 53.544 72.1224 53.9237 71.7166 54.0641C67.2795 55.6039 64.2937 59.7913 64.2937 64.4833V77.649ZM87.4 79.6517H63.2897C62.7332 79.6517 62.2858 79.2043 62.2858 78.6529V64.4833C62.2858 59.1775 65.5109 54.4231 70.385 52.4308V48.0353C70.385 47.4787 70.8323 47.0313 71.3889 47.0313H72.4605V32.2271C72.4605 29.5118 70.2445 27.3062 67.524 27.3062H42.8156C40.0898 27.3062 37.8791 29.5118 37.8791 32.2271V43.4473H38.1912C38.7478 43.4473 39.1951 43.8999 39.1951 44.4513V48.3318C39.1951 48.8832 38.7478 49.3305 38.1912 49.3305H31.793C31.2364 49.3305 30.7891 48.8832 30.7891 48.3318V44.4513C30.7891 43.8999 31.2364 43.4473 31.793 43.4473H32.1051V32.2271C32.1051 26.3387 36.9115 21.5479 42.8156 21.5479H67.524C73.428 21.5479 78.2344 26.3387 78.2344 32.2271V47.0313H79.306C79.8574 47.0313 80.3047 47.4787 80.3047 48.0353V52.4308C85.1788 54.4231 88.4039 59.1775 88.4039 64.4833V78.6529C88.4039 79.2043 87.9566 79.6517 87.4 79.6517Z" fill="#0E0E0E"/>
<path d="M28.2774 61.4091H26.2695V58.0695H28.2774V61.4091Z" fill="#0E0E0E"/>
<path d="M28.2775 60.0722C28.0226 60.0722 27.7677 59.9734 27.57 59.7809L27.2787 59.4844L26.9822 59.7809C26.5921 60.1711 25.9523 60.1711 25.5621 59.7809C25.172 59.3908 25.172 58.7562 25.5621 58.3661L26.5661 57.3621C26.9562 56.972 27.596 56.972 27.9862 57.3621L28.9901 58.3661C29.3802 58.7562 29.3802 59.3908 28.9901 59.7809C28.7924 59.9734 28.5375 60.0722 28.2775 60.0722Z" fill="#0E0E0E"/>
<path d="M35.9962 61.4091H33.9883V58.0695H35.9962V61.4091Z" fill="#0E0E0E"/>
<path d="M35.9962 60.0722C35.7413 60.0722 35.4812 59.9734 35.2888 59.7809L34.9923 59.4844L34.701 59.7809C34.3056 60.1711 33.671 60.1711 33.2809 59.7809C32.8855 59.3908 32.8855 58.7562 33.2809 58.3661L34.2848 57.3621C34.675 56.972 35.3096 56.972 35.7049 57.3621L36.7088 58.3661C37.099 58.7562 37.099 59.3908 36.7088 59.7809C36.5112 59.9734 36.2511 60.0722 35.9962 60.0722Z" fill="#0E0E0E"/>
<path d="M43.7159 61.4091H41.708V58.0695H43.7159V61.4091Z" fill="#0E0E0E"/>
<path d="M43.7163 60.0722C43.4562 60.0722 43.2013 59.9734 43.0036 59.7809L42.7123 59.4844L42.4158 59.7809C42.0257 60.1711 41.3911 60.1711 40.9957 59.7809C40.6056 59.3908 40.6056 58.7562 40.9957 58.3661L41.9997 57.3621C42.395 56.972 43.0296 56.972 43.4198 57.3621L44.4237 58.3661C44.819 58.7562 44.819 59.3908 44.4237 59.7809C44.2312 59.9734 43.9711 60.0722 43.7163 60.0722Z" fill="#0E0E0E"/>
<path d="M19.2782 14.7908C20.9376 15.5971 22.212 16.8663 23.0183 18.5257C23.8298 16.8663 25.099 15.5971 26.7584 14.7908C25.099 13.9845 23.8298 12.7153 23.0183 11.0559C22.212 12.7153 20.9376 13.9845 19.2782 14.7908ZM23.0183 24.2737C22.4669 24.2737 22.0143 23.8263 22.0143 23.2749C22.0143 18.5881 19.2106 15.7948 14.5134 15.7948C13.962 15.7948 13.5146 15.3422 13.5146 14.7908C13.5146 14.2394 13.962 13.7869 14.5134 13.7869C19.2106 13.7869 22.0143 10.9935 22.0143 6.30672C22.0143 5.75534 22.4669 5.30798 23.0183 5.30798C23.5749 5.30798 24.0222 5.75534 24.0222 6.30672C24.0222 10.9935 26.826 13.7869 31.5232 13.7869C32.0798 13.7869 32.5271 14.2394 32.5271 14.7908C32.5271 15.3422 32.0798 15.7948 31.5232 15.7948C26.826 15.7948 24.0222 18.5881 24.0222 23.2749C24.0222 23.8263 23.5749 24.2737 23.0183 24.2737Z" fill="#0E0E0E"/>
<path d="M55.8729 41.7152C57.0433 42.355 57.9744 43.2809 58.6143 44.4461C59.2541 43.2809 60.1852 42.355 61.3556 41.7152C60.1852 41.0753 59.2541 40.1442 58.6143 38.979C57.9744 40.1442 57.0433 41.0753 55.8729 41.7152ZM58.6143 49.6843C58.0577 49.6843 57.6103 49.2369 57.6103 48.6855C57.6103 44.8934 55.4256 42.7139 51.6231 42.7139C51.0665 42.7139 50.6191 42.2666 50.6191 41.7152C50.6191 41.1586 51.0665 40.7112 51.6231 40.7112C55.4256 40.7112 57.6103 38.5317 57.6103 34.7396C57.6103 34.1882 58.0577 33.7408 58.6143 33.7408C59.1657 33.7408 59.6182 34.1882 59.6182 34.7396C59.6182 38.5317 61.7978 40.7112 65.6055 40.7112C66.1568 40.7112 66.6094 41.1586 66.6094 41.7152C66.6094 42.2666 66.1568 42.7139 65.6055 42.7139C61.7978 42.7139 59.6182 44.8934 59.6182 48.6855C59.6182 49.2369 59.1657 49.6843 58.6143 49.6843Z" fill="#0E0E0E"/>
<path d="M58.3124 8.73067C59.4828 9.37049 60.4139 10.3016 61.0537 11.4668C61.6935 10.3016 62.6247 9.37049 63.7951 8.73067C62.6247 8.09085 61.6935 7.16493 61.0537 5.99974C60.4139 7.16493 59.4828 8.09085 58.3124 8.73067ZM61.0537 16.705C60.4971 16.705 60.0498 16.2576 60.0498 15.7062C60.0498 11.909 57.865 9.73461 54.0625 9.73461C53.5111 9.73461 53.0586 9.28726 53.0586 8.73067C53.0586 8.17928 53.5111 7.73193 54.0625 7.73193C57.865 7.73193 60.0498 5.55238 60.0498 1.76029C60.0498 1.2037 60.4971 0.756348 61.0537 0.756348C61.6103 0.756348 62.0577 1.2037 62.0577 1.76029C62.0577 5.55238 64.2372 7.73193 68.0449 7.73193C68.5963 7.73193 69.0488 8.17928 69.0488 8.73067C69.0488 9.28726 68.5963 9.73461 68.0449 9.73461C64.2372 9.73461 62.0577 11.909 62.0577 15.7062C62.0577 16.2576 61.6103 16.705 61.0537 16.705Z" fill="#0E0E0E"/>
</svg>
