<svg width="90" height="77" viewBox="0 0 90 77" fill="none" xmlns="http://www.w3.org/2000/svg">
<path d="M5.1137 33.902C5.81074 33.9332 6.47137 34.1361 7.07477 34.4534C6.51298 36.4405 5.96679 38.9478 5.46742 41.5382H4.18779C3.42833 41.5226 2.71048 41.2157 2.1799 40.6904C1.64412 40.1494 1.33201 39.4315 1.31641 38.6669V36.6642C1.32161 35.9359 1.61811 35.2389 2.12788 34.7187C2.64806 34.2089 3.3451 33.9124 4.06814 33.902H5.1137Z" fill="#0E0E0E"/>
<path d="M43.6952 56.3945C43.6952 57.0343 43.4404 57.6534 42.993 58.1007C42.5404 58.5481 41.9318 58.8082 41.292 58.8082H36.3139C35.5233 58.8134 34.7846 58.4284 34.3372 57.7834C33.8795 57.1332 33.7755 56.3061 34.0459 55.5622C34.3216 54.8184 34.9355 54.2566 35.7001 54.0641L40.7198 52.7429C41.4377 52.5504 42.2127 52.7117 42.8005 53.1694C43.3935 53.622 43.7369 54.3294 43.7369 55.0837L43.6952 56.3945Z" fill="#0E0E0E"/>
<path d="M17.5716 58.8082H12.5519C11.9121 58.8082 11.2983 58.5481 10.8509 58.1007C10.4036 57.6534 10.1487 57.0343 10.1487 56.3945V55.0837C10.1383 54.3346 10.4816 53.622 11.0746 53.1694C11.6624 52.7117 12.4322 52.5504 13.1553 52.7429L18.1698 54.0641C18.9241 54.2722 19.5327 54.834 19.8032 55.5726C20.0737 56.3061 19.9644 57.1228 19.5223 57.773C19.0801 58.4128 18.3415 58.8082 17.5716 58.8082Z" fill="#0E0E0E"/>
<path d="M67.4723 33.8708C66.9729 34.1101 66.6764 34.6459 66.7492 35.2025C66.7856 35.5302 66.8064 35.8267 66.8064 36.092C66.8064 40.1338 63.5345 43.4213 59.5083 43.4213C58.52 43.4213 57.5629 43.2288 56.6526 42.8439C56.3092 42.6878 55.9295 42.7086 55.5862 42.8647C55.2481 43.0259 55.0036 43.3328 54.9048 43.6918C54.2337 46.1418 52.0074 47.848 49.4793 47.848C46.7276 47.848 44.3972 45.8713 43.9446 43.1404C43.8562 42.641 43.4869 42.2353 43.0031 42.1052C40.1994 41.3354 38.2435 38.7657 38.2435 35.8475C38.2435 32.9605 40.1837 30.396 42.9511 29.6158C43.5441 29.4493 43.9446 28.8875 43.8926 28.2737L43.8874 28.1853C43.8718 27.946 43.8562 27.7119 43.8562 27.4622C43.8562 21.5738 48.6262 16.7882 54.4938 16.7882C57.5733 16.7882 60.5019 18.1302 62.5254 20.4762C62.8063 20.8092 63.238 20.9652 63.6698 20.9184C63.9975 20.8768 64.268 20.856 64.5228 20.856C68.2785 20.856 71.3372 23.9302 71.3372 27.7015C71.3372 30.3544 69.8599 32.716 67.4723 33.8708ZM73.9277 27.7119C73.9277 22.4945 69.709 18.2603 64.5228 18.2603C64.3616 18.2603 64.1951 18.2655 64.0287 18.2759C61.537 15.6698 58.0987 14.1925 54.4938 14.1925C47.2061 14.1925 41.2709 20.1433 41.2709 27.457C37.9158 28.8407 35.6582 32.1594 35.6582 35.8475C35.6582 39.6604 38.0458 43.0571 41.557 44.3628C42.5141 47.9364 45.7288 50.4541 49.4793 50.4541C52.7044 50.4541 55.6018 48.545 56.9231 45.6788C57.7709 45.9025 58.6344 46.017 59.5083 46.017C64.9598 46.017 69.3969 41.5694 69.3969 36.092C69.3969 35.9931 69.3917 35.8891 69.3917 35.7799C72.1747 34.0789 73.9277 31.0046 73.9277 27.7119Z" fill="#0E0E0E"/>
<path d="M54.4939 17.2668C57.4381 17.2668 60.2262 18.5464 62.1613 20.7988C62.5514 21.2409 63.1392 21.4646 63.7218 21.397C64.0339 21.3605 64.2888 21.3449 64.5229 21.3449C68.0237 21.3449 70.8587 24.1851 70.8587 27.7015C70.8587 30.1724 69.4854 32.3675 67.259 33.4443C66.5828 33.7772 66.1823 34.5106 66.2707 35.2649C66.3175 35.577 66.3227 35.8423 66.3227 36.092C66.3227 39.8685 63.2693 42.9375 59.5084 42.9375C58.5825 42.9375 57.693 42.7554 56.8451 42.3913C56.3665 42.1937 55.8307 42.2093 55.3782 42.4329C54.9152 42.6566 54.5771 43.0728 54.4419 43.5721C53.828 45.8037 51.7942 47.3746 49.4794 47.3746C46.9565 47.3746 44.829 45.5644 44.4076 43.0571C44.2932 42.3757 43.799 41.8243 43.128 41.6423C40.5375 40.9296 38.7221 38.5472 38.7221 35.8579C38.7221 33.1842 40.5167 30.8018 43.0864 30.0735C43.8875 29.8498 44.4284 29.0904 44.3712 28.2477V28.1437L44.366 28.1385C44.34 27.9044 44.3348 27.6807 44.3348 27.4622C44.3348 21.8391 48.8916 17.2668 54.4939 17.2668ZM54.4939 16.3044C48.3714 16.3044 43.3777 21.3189 43.3777 27.4622C43.3777 27.7275 43.3933 27.9824 43.4141 28.2217L43.4245 28.3049C43.4453 28.6951 43.2008 29.0436 42.8263 29.1476C39.8405 29.9851 37.765 32.7472 37.765 35.8579C37.765 38.9842 39.8665 41.7463 42.8731 42.5682C43.1852 42.6514 43.4141 42.9063 43.4661 43.2288C43.9603 46.1834 46.504 48.3317 49.4794 48.3317C52.2259 48.3317 54.6447 46.4695 55.3678 43.8218C55.4354 43.5877 55.5862 43.4057 55.7943 43.2964C56.0076 43.1924 56.2573 43.1872 56.4757 43.2808C57.4381 43.6918 58.4576 43.8998 59.5084 43.8998C63.7946 43.8998 67.2902 40.3938 67.2902 36.092C67.2902 35.8007 67.2642 35.499 67.2174 35.1453C67.1862 34.7915 67.3631 34.4638 67.6804 34.313C70.2292 33.0801 71.821 30.5313 71.8158 27.7015C71.8158 23.6649 68.5439 20.3826 64.5229 20.3826C64.2524 20.3826 63.9559 20.3982 63.6178 20.4398C63.3317 20.471 63.0716 20.3722 62.8843 20.1641C60.7724 17.7141 57.7138 16.3044 54.4991 16.3044H54.4939ZM54.4939 14.6607C57.9687 14.6607 61.2822 16.0964 63.6854 18.614L63.8415 18.7649L64.0599 18.7545C64.216 18.7493 64.372 18.7389 64.5229 18.7389C69.4438 18.7389 73.4491 22.7546 73.4491 27.7015C73.4491 30.8278 71.7846 33.7616 69.1421 35.3793L68.908 35.5198V35.7955C68.908 35.8891 68.9184 35.9931 68.9184 36.092C68.9184 41.3041 64.6998 45.5332 59.5084 45.5332C58.6709 45.5332 57.849 45.424 57.0531 45.2055L56.663 45.1118L56.4966 45.4708C55.2429 48.1705 52.5224 49.9703 49.4794 49.9703C45.9474 49.9703 42.9303 47.6087 42.0252 44.2432L41.9628 43.9935L41.7235 43.9154C38.3944 42.6722 36.1316 39.4627 36.1316 35.8579C36.1316 32.3571 38.2747 29.2152 41.4426 27.9044L41.7391 27.7743V27.457C41.7495 20.3982 47.4611 14.6607 54.4939 14.6607ZM54.4939 13.7087C47.0605 13.7087 41.0993 19.7428 40.912 27.1605C37.5049 28.6638 35.1797 32.045 35.1797 35.8579C35.1797 39.8008 37.6401 43.2652 41.2398 44.7009C42.3321 48.3474 45.6092 50.9326 49.4794 50.9326C52.7617 50.9326 55.6331 49.008 57.1104 46.173C57.901 46.3603 58.6865 46.5007 59.5084 46.5007C65.2147 46.5007 69.8755 41.8243 69.8755 36.092C69.8755 36.0504 69.8859 36.0035 69.8755 35.9515C72.6377 34.1361 74.4063 31.0515 74.4063 27.7015V27.2073L74.2086 27.2125C73.9121 22.0108 69.7819 17.7869 64.5229 17.7869C64.3616 17.7869 64.1952 17.7869 64.0287 17.7973C61.4747 15.2693 58.1039 13.7087 54.4939 13.7087Z" fill="#0E0E0E"/>
<path d="M50.1191 66.59V71.6305C50.1191 71.8126 50.0411 71.9895 49.9006 72.1195C49.7654 72.2392 49.5833 72.3016 49.4012 72.286H44.444C44.085 72.286 43.7989 71.9895 43.7989 71.6305V66.9229H48.1632C48.8238 66.9281 49.4897 66.8189 50.1191 66.59ZM3.90653 66.5276C4.54115 66.7513 5.20177 66.8553 5.8624 66.8553H10.2267L10.1643 71.6305C10.1643 71.8074 10.1018 71.9687 9.9718 72.0935C9.85216 72.2131 9.6857 72.286 9.51925 72.286H4.56196C4.20303 72.286 3.90653 71.9895 3.90653 71.6305V66.5276ZM12.3854 28.7991C11.0122 28.8564 9.6857 29.3297 8.60894 30.188C7.44374 31.1139 6.63746 32.4196 6.32016 33.8813L3.84411 45.1951C2.72053 45.6165 1.753 46.3603 1.06116 47.3435C0.374526 48.3318 0.00520277 49.4918 0 50.6934V71.6305C0 72.8426 0.478565 74.0078 1.33165 74.8661C2.19515 75.7243 3.34994 76.2133 4.56196 76.2133H9.58167C10.7885 76.2133 11.9537 75.7243 12.8068 74.8661C13.6599 74.0078 14.1384 72.8426 14.1384 71.6305V66.9229H39.882V71.6305C39.882 72.8426 40.3658 74.0078 41.2189 74.8661C42.0771 75.7243 43.2319 76.2133 44.444 76.2133H49.4637C50.6757 76.2133 51.8357 75.7243 52.6888 74.8661C53.5523 74.0078 54.0308 72.8426 54.0308 71.6305V51.6922C54.0048 51.6922 54.036 46.7973 54.0672 49.3305C52.7616 49.3305 51.4195 50.4437 50.1347 50.194L50.0567 61.0345C50.0463 61.5547 49.8486 62.0489 49.4793 62.4182C49.1151 62.7875 48.6106 62.9956 48.0904 62.9956H5.8624C5.34742 62.9956 4.84805 62.7875 4.48393 62.4182C4.1146 62.0489 3.90653 61.5547 3.90653 61.0345V50.6934C3.90653 50.1732 4.1146 49.6739 4.48393 49.3045C4.84805 48.9404 5.34742 48.7323 5.8624 48.7323L44.6364 48.6907C42.8886 47.614 43.544 46.3343 42.3164 44.805H7.95351L10.1643 34.802C10.2995 34.2246 10.622 33.7096 11.0798 33.3403C11.5427 32.9762 12.1201 32.7733 12.7079 32.7733L37.0938 32.7317C37.3487 31.3636 38.3111 29.9956 38.9457 28.7263L12.3854 28.7991Z" fill="#0E0E0E"/>
<path d="M71.7695 6.07774C73.7462 6.07774 75.3692 7.70069 75.3692 9.68777C75.3692 11.6853 73.7462 13.3082 71.7695 13.3082C69.7825 13.3082 68.1595 11.6853 68.1595 9.68777C68.1595 7.70069 69.7825 6.07774 71.7695 6.07774ZM71.7695 15.9039C75.1767 15.9039 77.9544 13.1157 77.9544 9.68777C77.9544 6.27021 75.1767 3.48206 71.7695 3.48206C68.352 3.48206 65.5742 6.27021 65.5742 9.68777C65.5742 13.1157 68.352 15.9039 71.7695 15.9039Z" fill="#0E0E0E"/>
<path d="M34.7112 19.0926C33.416 19.0926 32.3652 18.0366 32.3652 16.7362C32.3652 15.441 33.416 14.385 34.7112 14.385C36.0013 14.385 37.0572 15.441 37.0572 16.7362C37.0572 18.0366 36.0013 19.0926 34.7112 19.0926ZM34.7112 11.7893C31.9907 11.7893 29.7695 14.0053 29.7695 16.7362C29.7695 19.4671 31.9907 21.6935 34.7112 21.6935C37.4317 21.6935 39.6425 19.4671 39.6425 16.7362C39.6425 14.0053 37.4317 11.7893 34.7112 11.7893Z" fill="#0E0E0E"/>
<path d="M48.361 8.06484C47.0709 8.06484 46.015 7.00368 46.015 5.70844C46.015 4.40799 47.0709 3.35203 48.361 3.35203C49.6562 3.35203 50.707 4.40799 50.707 5.70844C50.707 7.00368 49.6562 8.06484 48.361 8.06484ZM48.361 0.756348C45.6404 0.756348 43.4297 2.97751 43.4297 5.70844C43.4297 8.43937 45.6404 10.6657 48.361 10.6657C51.0867 10.6657 53.3027 8.43937 53.3027 5.70844C53.3027 2.97751 51.0867 0.756348 48.361 0.756348Z" fill="#0E0E0E"/>
<path d="M55.3782 23.8366C56.3978 23.8366 57.2196 24.6585 57.2196 25.6832C57.2196 26.7028 56.3978 27.5351 55.3782 27.5351C54.3639 27.5351 53.542 26.7028 53.542 25.6832C53.542 24.6585 54.3639 23.8366 55.3782 23.8366Z" fill="#0E0E0E"/>
<path d="M55.3782 23.8367C56.3978 23.8367 57.2196 24.6586 57.2196 25.6833C57.2196 26.7029 56.3978 27.5352 55.3782 27.5352C54.3639 27.5352 53.542 26.7029 53.542 25.6833C53.542 24.6586 54.3639 23.8367 55.3782 23.8367Z" stroke="#040606" stroke-width="0.422432" stroke-linecap="square"/>
<path d="M61.735 31.4208C62.7493 31.4208 63.5816 32.2531 63.5816 33.2726C63.5816 34.2974 62.7493 35.1192 61.735 35.1192C60.7154 35.1192 59.8936 34.2974 59.8936 33.2726C59.8936 32.2531 60.7154 31.4208 61.735 31.4208Z" fill="#0E0E0E"/>
<path d="M61.734 31.4209C62.7483 31.4209 63.5806 32.2531 63.5806 33.2727C63.5806 34.2974 62.7483 35.1193 61.734 35.1193C60.7145 35.1193 59.8926 34.2974 59.8926 33.2727C59.8926 32.2531 60.7145 31.4209 61.734 31.4209Z" stroke="#040606" stroke-width="0.422432" stroke-linecap="square"/>
<path d="M49.6409 33.7616C50.6605 33.7616 51.4823 34.5835 51.4823 35.6082C51.4823 36.6278 50.6605 37.4497 49.6409 37.4497C48.6266 37.4497 47.8047 36.6278 47.8047 35.6082C47.8047 34.5835 48.6266 33.7616 49.6409 33.7616Z" fill="#0E0E0E"/>
<path d="M49.6409 33.7617C50.6605 33.7617 51.4823 34.5836 51.4823 35.6083C51.4823 36.6279 50.6605 37.4498 49.6409 37.4498C48.6266 37.4498 47.8047 36.6279 47.8047 35.6083C47.8047 34.5836 48.6266 33.7617 49.6409 33.7617Z" stroke="#040606" stroke-width="0.422432" stroke-linecap="square"/>
<path d="M23.3871 23.7378H30.6228C31.8712 23.7378 32.8752 24.7469 32.8752 25.9902V30.5885C32.8752 31.837 31.8712 32.8461 30.6228 32.8461H23.3871C22.1491 32.8461 21.1348 31.837 21.1348 30.5885V25.9902C21.1348 24.7469 22.1491 23.7378 23.3871 23.7378Z" fill="#0E0E0E"/>
<path d="M77.1686 48.6283L84.6644 55.8691C84.8932 56.098 84.9036 56.4777 84.68 56.717L73.5014 68.3534C73.2777 68.5927 72.8927 68.6031 72.6587 68.369L65.1681 61.1281C64.9288 60.9044 64.9184 60.5195 65.1525 60.2802L76.3259 48.6439C76.5548 48.3994 76.9293 48.3942 77.1686 48.6283ZM81.4133 47.5203L85.5955 51.5673C85.7619 51.7233 85.7723 51.999 85.6059 52.1655L84.1598 53.674L79.3742 49.0444L80.8255 47.5359C80.9815 47.3694 81.2468 47.359 81.4133 47.5203ZM85.1637 46.662L86.3133 47.7752L84.9349 49.2109L83.7853 48.0977L85.1637 46.662ZM81.7202 41.8087C81.7098 41.8035 81.6942 41.7931 81.6837 41.7827C81.6785 41.7827 81.6785 41.7827 81.6681 41.7775C81.6473 41.7619 81.6213 41.7463 81.5901 41.7359C81.5797 41.7307 81.5745 41.7307 81.5745 41.7307L76.7525 40.3522C76.586 40.3054 76.4091 40.4095 76.3727 40.5655L76.2427 41.0233C76.1907 41.1949 76.2843 41.3614 76.4508 41.4082L81.1011 42.7295L84.2794 45.8037L82.901 47.2394L82.2663 46.6308C81.6161 45.9962 80.5706 46.0222 79.9359 46.6776L78.4847 48.1861L78.0217 47.7388C77.2987 47.0313 76.1387 47.0573 75.4364 47.7856L64.2682 59.4219C63.566 60.1502 63.5868 61.3206 64.315 62.0176L71.8056 69.2585C72.5338 69.9659 73.6886 69.9399 74.3857 69.2117L85.5643 57.5753C86.2561 56.8419 86.2405 55.6819 85.507 54.9796L85.0441 54.5271L86.4954 53.0134C87.13 52.3579 87.104 51.3072 86.4486 50.6778L85.8192 50.0692L87.1976 48.6335L88.5553 49.9391C88.6749 50.0587 88.8778 50.0588 88.9974 49.9339L89.32 49.5958C89.4396 49.4657 89.4344 49.2733 89.3147 49.1536L81.7202 41.8087Z" fill="#0E0E0E"/>
<path d="M76.6698 48.9612C76.7062 48.9144 76.7946 48.9144 76.8414 48.9612L77.0027 49.1225L84.3268 56.2125C84.3736 56.2593 84.384 56.3321 84.3372 56.3789L73.1586 68.0257C73.1066 68.0829 73.0389 68.0725 72.9869 68.0257L65.4964 60.7848C65.4392 60.7276 65.4392 60.6652 65.4964 60.608L76.6698 48.9612ZM77.4969 48.2798C77.0755 47.874 76.3889 47.8792 75.9831 48.311L64.8097 59.9526C64.4092 60.3791 64.4196 61.0657 64.8409 61.4715L72.3367 68.7227C72.758 69.1337 73.4447 69.1077 73.8504 68.6811L85.0134 57.0344C85.4296 56.613 85.414 55.9368 84.9926 55.5311L77.4969 48.2798ZM77.3356 48.1237L77.1223 48.1549L77.4969 48.2798L77.3356 48.1237ZM81.1225 47.9053L85.2319 51.869L84.1603 52.9926L80.0509 49.034L81.1225 47.9053ZM85.1747 47.3383L85.6428 47.7856L84.925 48.5295L84.4568 48.0873L85.1747 47.3383ZM81.7519 47.1822C81.3982 46.8389 80.826 46.8545 80.4827 47.2082L78.7037 49.06L84.1707 54.345L85.9497 52.4932C86.2827 52.1447 86.2723 51.5673 85.9237 51.2188L81.7519 47.1822ZM85.1487 45.9806L84.821 46.3291L83.1044 48.1133L84.9562 49.8819L86.9849 47.7596L85.1487 45.9806ZM76.779 40.8621L81.4086 42.1781C81.4138 42.1781 81.4138 42.1781 81.4242 42.1781V42.1937H81.4294L88.8679 49.3878L88.7743 49.4762L87.193 47.9521L85.1487 50.0848L86.1162 51.0263C86.5844 51.4789 86.6104 52.2227 86.1526 52.6961L84.3736 54.5427L85.1903 55.323C85.7313 55.8432 85.7313 56.691 85.2215 57.2372L74.0429 68.884C73.5227 69.4198 72.68 69.4458 72.1442 68.9256L64.6433 61.6743C64.1075 61.1542 64.0815 60.2959 64.6017 59.7601L75.7803 48.1133C76.3005 47.5671 77.1535 47.5515 77.6945 48.0717L78.5008 48.8572L80.2798 47.0053C80.7376 46.5372 81.4814 46.5268 81.9444 46.9845L82.9171 47.9105L84.9562 45.7881L81.341 42.3133L76.753 41.0025L76.779 40.8621ZM76.8831 39.8945C76.4669 39.7749 76.03 40.0142 75.9155 40.4303V40.4459L75.7803 40.8985C75.671 41.3042 75.9103 41.7464 76.3265 41.866L80.8624 43.1612L83.6037 45.8141L82.8911 46.5684L82.5946 46.2875C81.7571 45.4708 80.3995 45.5124 79.5984 46.3499L78.48 47.5047L78.35 47.3903C77.4344 46.5112 75.9727 46.5424 75.0936 47.4579L63.9254 59.1047C63.0463 60.015 63.0775 61.4923 63.9879 62.3714L71.4732 69.6019C72.3835 70.4862 73.8504 70.4705 74.7295 69.5498L85.9081 57.9083C86.7872 56.9875 86.756 55.5206 85.8457 54.6415L85.7157 54.5219L86.8392 53.3515C87.6455 52.5036 87.6247 51.1408 86.7872 50.3345L86.4959 50.0536L87.219 49.3045L88.2229 50.2929C88.535 50.5894 89.0448 50.5738 89.3309 50.2669L89.6638 49.9235C89.9551 49.6166 89.9551 49.1069 89.6482 48.8104L82.0432 41.4655C82.0432 41.4655 82.0068 41.4342 81.9912 41.4186C81.9912 41.4186 81.9808 41.4082 81.9756 41.403C81.9756 41.4082 81.9236 41.3822 81.9444 41.3926C81.9236 41.377 81.8768 41.3458 81.8403 41.3198C81.8455 41.3302 81.8143 41.3146 81.8143 41.3146C81.8143 41.3146 81.7987 41.3042 81.7883 41.299C81.7831 41.299 81.7727 41.299 81.7519 41.2886L81.7259 41.273C81.7207 41.273 81.7207 41.273 81.7103 41.273L76.8831 39.8945Z" fill="#0E0E0E"/>
</svg>
