<svg width="91" height="73" viewBox="0 0 91 73" fill="none" xmlns="http://www.w3.org/2000/svg">
<path d="M87.5777 29.1935V17.1766H80.7222L71.083 0.54657H31.795L22.552 16.5136L4.91648 3.58616L3.22972 5.88718L18.6349 17.1766H2.64593V29.1935H0V34.8876H2.6508V39.2788H19.1358V37.8553C19.1358 34.7877 21.6391 32.2855 24.714 32.2855C27.7853 32.2855 30.2838 34.7877 30.2838 37.8553V39.2788H37.2246V41.553H41.2282V69.6077H32.5702V72.4547H58.4262V69.6077H49.7693V41.553H53.7693V39.2788H59.0161C59.6949 43.2471 63.1269 46.2733 67.2805 46.2733C71.4389 46.2733 74.8782 43.2471 75.5571 39.2788H87.5741V34.8876H91V29.1935H87.5777ZM67.2829 43.4323C64.2141 43.4323 61.718 40.9363 61.718 37.8553C61.718 34.7877 64.2153 32.2855 67.2829 32.2855C70.3578 32.2855 72.86 34.7877 72.86 37.8553C72.86 40.9363 70.3578 43.4323 67.2829 43.4323ZM84.7307 36.433H75.562C74.8831 32.4671 71.445 29.4385 67.2866 29.4385C63.133 29.4385 59.6986 32.4671 59.0209 36.433H33.0101C32.3325 32.4647 28.8688 29.4385 24.7128 29.4385C20.552 29.4385 17.0834 32.4647 16.4082 36.433H5.49783V20.0236H23.8097L33.4416 3.39359H69.4462L79.0817 20.0236H84.7368V36.433H84.7307ZM49.7193 6.95969H65.8594V19.9151H49.7193V6.95969ZM68.7064 9.23146L74.8953 19.9127H68.7064V9.23146ZM35.4903 6.95969H46.8723V19.9151H27.9815L35.4903 6.95969ZM21.3649 45.0362C16.7165 45.0362 12.9384 48.8119 12.9384 53.4542C12.9384 55.9722 14.0767 58.2135 15.8451 59.7588H13.5307V65.4529H29.2015V59.7588H26.8871C28.6494 58.2135 29.7938 55.9734 29.7938 53.4542C29.7829 48.8119 26.0071 45.0362 21.3649 45.0362ZM21.3649 59.0203C18.2912 59.0203 15.7854 56.5243 15.7854 53.4554C15.7854 50.3805 18.2912 47.8845 21.3649 47.8845C24.4349 47.8845 26.9334 50.3805 26.9334 53.4554C26.9358 56.5243 24.4398 59.0203 21.3649 59.0203ZM13.5307 66.7594H29.2015V72.4535H13.5307V66.7594Z" fill="black"/>
</svg>
