<svg width="59" height="37" viewBox="0 0 59 37" fill="none" xmlns="http://www.w3.org/2000/svg">
<path d="M57.3644 16.8672H5.58227L19.6364 2.79857C20.2785 2.15578 20.2785 1.12489 19.6364 0.482095C18.9942 -0.160698 17.9644 -0.160698 17.3223 0.482095L0.481596 17.3402C-0.160532 17.983 -0.160532 19.0139 0.481596 19.6567L17.3223 36.5149C17.6373 36.8302 18.0613 37 18.4733 37C18.8852 37 19.3093 36.8423 19.6243 36.5149C20.2664 35.8721 20.2664 34.8412 19.6243 34.1984L5.57015 20.1297H57.3644C58.2731 20.1297 59 19.402 59 18.4924C59 17.5828 58.2731 16.8672 57.3644 16.8672Z" fill="#36363E"/>
</svg>
