<svg width="267" height="267" viewBox="0 0 267 267" fill="none" xmlns="http://www.w3.org/2000/svg">
<path fill-rule="evenodd" clip-rule="evenodd" d="M259.93 133.324C259.93 203.636 203.169 260.653 133.153 260.653C99.5493 260.653 67.2827 247.243 43.5106 223.366C19.7385 199.485 6.36993 167.094 6.36993 133.324C6.36993 99.5798 19.7385 67.1883 43.5106 43.3018C67.2879 19.4205 99.5493 6.02069 133.153 6.02069C203.174 6.02069 259.93 63.0269 259.93 133.324Z" fill="#87AAE1"/>
<path fill-rule="evenodd" clip-rule="evenodd" d="M259.93 133.324C259.93 203.636 203.169 260.653 133.153 260.653V6.02069C203.174 6.02069 259.93 63.0269 259.93 133.324Z" fill="#7693C1"/>
<path fill-rule="evenodd" clip-rule="evenodd" d="M234.951 133.324C234.951 160.435 224.22 186.46 205.135 205.618C186.05 224.792 160.15 235.565 133.153 235.565C106.161 235.565 80.2715 224.792 61.1914 205.618C42.0905 186.46 31.3749 160.435 31.3749 133.324C31.3749 106.233 42.0853 80.2032 61.1914 61.0555C80.2715 41.8817 106.161 31.1088 133.153 31.1088C160.155 31.1088 186.05 41.8765 205.135 61.0555C224.22 80.2032 234.951 106.233 234.951 133.324Z" fill="#F2F2F2"/>
<path d="M233.932 25.028L131.712 127.524L110.551 106.68C96.2306 92.6094 77.8839 112.605 87.58 125.672L122.962 173.44C127.701 178.069 136.066 177.721 140.456 173.44L255.124 45.9859C268.16 31.4938 246.302 12.5957 233.932 25.028Z" fill="#6BE96B"/>
<path d="M256.045 27.6445C255.738 28.045 255.478 28.4716 255.124 28.9033L140.451 156.326C136.061 160.607 127.67 160.961 122.957 156.326L87.7361 108.777C84.4069 113.666 83.5382 120.252 87.5748 125.672L122.957 173.44C127.67 178.069 136.061 177.721 140.451 173.44L255.124 46.0119C260.737 39.7386 259.863 32.6538 256.045 27.6445Z" fill="#64D964"/>
<path d="M70.5131 195.584C72.4065 197.082 75.1322 196.895 76.8124 195.152L82.2639 189.711C84.3238 187.911 84.4226 184.722 82.5032 182.777C80.5525 180.847 77.3846 180.946 75.5796 183.011L70.1541 188.447C68.0942 190.45 68.2555 193.8 70.5131 195.584Z" fill="#284268"/>
<path d="M193.66 194.798C195.153 192.9 194.991 190.174 193.233 188.452L187.813 183.016C186.008 180.946 182.835 180.852 180.889 182.782C178.97 184.728 179.069 187.911 181.134 189.716L186.58 195.157C188.567 197.227 191.881 197.051 193.66 194.798Z" fill="#284268"/>
<path d="M82.8568 83.704C84.3758 81.8001 84.1833 79.0692 82.4303 77.3838L76.9996 71.9116C75.205 69.8465 72.0319 69.758 70.1073 71.6775C68.1618 73.6229 68.2555 76.8116 70.3206 78.6166L75.7772 84.0577C77.7643 86.128 81.1038 85.9616 82.8568 83.704Z" fill="#284268"/>
<path d="M218.784 132.897C218.498 130.489 216.438 128.689 214.02 128.71H206.316C203.595 128.548 201.27 130.707 201.27 133.438C201.27 136.2 203.6 138.359 206.316 138.198H214.02C216.865 138.219 219.117 135.748 218.784 132.897Z" fill="#284268"/>
<path d="M62.0966 132.897C61.7897 130.489 59.7506 128.689 57.3161 128.71H49.6331C46.9074 128.548 44.5874 130.707 44.5874 133.438C44.5874 136.2 46.9126 138.359 49.6331 138.198H57.3161C60.1719 138.219 62.4243 135.748 62.0966 132.897Z" fill="#284268"/>
<path d="M131.14 46.1316C128.752 46.4229 126.947 48.488 126.973 50.9068V58.6314C126.807 61.3624 128.955 63.6928 131.712 63.6928C134.432 63.6928 136.591 61.3624 136.419 58.6314V50.9068C136.471 48.0562 133.985 45.7987 131.14 46.1316Z" fill="#284268"/>
<path fill-rule="evenodd" clip-rule="evenodd" d="M115.097 27.9045C91.2056 32.0192 68.6872 44.2745 51.9999 63.8592C18.6253 103.07 17.8918 160.649 50.2469 200.692C82.6227 240.735 138.932 251.955 184.083 227.335C229.24 202.715 250.5 149.2 234.572 100.178C233.89 97.5355 231.113 96.0374 228.527 96.8957C225.942 97.7488 224.59 100.599 225.609 103.143C240.117 147.863 220.771 196.515 179.579 218.966C138.391 241.422 87.1274 231.231 57.6178 194.684C28.0769 158.157 28.7739 105.785 59.2303 69.9921C89.6867 34.2299 141.169 25.3661 181.769 48.8885C184.047 50.1993 186.934 49.4139 188.24 47.1615C189.535 44.8779 188.755 41.9753 186.507 40.6697C164.249 27.7849 138.958 23.7899 115.097 27.9045Z" fill="#284268"/>
<path d="M131.14 203.236C128.752 203.548 126.947 205.592 126.973 208.037V215.735C126.807 218.466 128.955 220.797 131.712 220.797C134.432 220.797 136.591 218.466 136.419 215.735V208.037C136.471 205.155 133.985 202.923 131.14 203.236Z" fill="#284268"/>
<path fill-rule="evenodd" clip-rule="evenodd" d="M116.018 1.11541C85.0312 5.15719 55.4799 20.0915 33.4608 45.112C-10.6034 95.1583 -10.9051 170.277 32.7013 220.708C76.3338 271.134 150.521 281.429 206.154 244.777C261.808 208.115 281.83 135.722 252.991 75.5528C251.966 72.9883 249.007 71.8439 246.546 73.0351C244.055 74.2211 243.103 77.2902 244.481 79.6674C271.312 135.633 252.736 202.736 200.984 236.818C149.242 270.916 80.386 261.386 39.8382 214.503C-0.74088 167.593 -0.407966 97.91 40.5508 51.3802C81.5044 4.82948 150.381 -4.13317 201.821 30.4014C204.001 31.8475 206.94 31.2753 208.376 29.0906C209.853 26.9318 209.255 23.9616 207.101 22.5103C179.438 3.95038 147.016 -2.92116 116.018 1.11541Z" fill="#284268"/>
<path d="M243.961 25.7406C246.307 25.9071 248.892 27.0723 250.833 28.8773C252.809 30.6823 254.084 33.0595 254.339 35.3639C254.599 37.6891 254.052 40.0715 251.571 42.8284L136.919 170.23C135.993 171.271 133.72 172.316 131.514 172.394C129.288 172.457 127.582 171.702 126.755 170.589L91.3617 122.821C88.0742 118.353 89.5827 112.933 93.2812 109.442C95.133 107.71 97.3906 106.685 99.6637 106.613C101.937 106.545 104.403 107.278 107.217 110.061L128.388 130.894C130.235 132.705 133.2 132.705 135.046 130.879L237.271 28.3831C239.451 26.188 241.584 25.5742 243.961 25.7406ZM244.627 16.2838C239.805 15.9509 234.598 17.6363 230.592 21.678L131.639 120.824L113.833 103.283C109.5 99.0076 104.288 96.9841 99.3985 97.109C94.5036 97.2494 90.1133 99.4133 86.7946 102.55C80.1831 108.803 77.3846 119.851 83.7827 128.481L119.144 176.249C122.276 180.426 127.27 181.997 131.774 181.851C136.3 181.737 140.753 180.14 143.936 176.602L258.625 49.1486C262.682 44.6647 264.289 39.26 263.717 34.3444C263.176 29.4079 260.664 25.106 257.246 21.9433C253.839 18.7806 249.433 16.6115 244.627 16.2838Z" fill="#284268"/>
</svg>
