<svg width="111" height="56" viewBox="0 0 111 56" fill="none" xmlns="http://www.w3.org/2000/svg">
<path d="M102.173 20.6505C102.128 20.6316 102.083 20.615 102.037 20.5994C101.48 20.3943 100.894 20.2005 100.269 20.0226C92.9841 17.9495 77.861 17.9258 77.2208 17.9258H74.0291L67.7377 7.38076C64.8681 2.59388 62.1776 0 56.1828 0C56.1821 0 56.1804 0 56.1796 0L31.8937 0.00371637C27.0862 0.00445967 22.3115 3.23957 19.4327 8.44641C19.425 8.46003 19.4176 8.47366 19.4106 8.48754L16.537 13.987L5.71055 15.2915C5.67141 15.2962 5.63226 15.3021 5.59336 15.3091C2.14319 15.9362 0 18.4991 0 21.9978V35.1848C0 40.5549 4.50169 43.1292 7.94245 44.0484C8.17337 50.4079 13.4159 55.5112 19.8308 55.5112C25.7151 55.5112 30.6122 51.2151 31.5592 45.5947H79.5486C80.4958 51.2151 85.3939 55.5112 91.2797 55.5112C97.1639 55.5112 102.061 51.2151 103.008 45.5947H109.018C110.112 45.5947 111 44.7072 111 43.6126V32.0708C111 28.2805 109.406 23.3675 102.173 20.6505ZM105.788 27.8556L101.172 27.8565V25.914C101.172 25.6871 101.324 25.1906 101.716 24.7399C103.552 25.556 104.906 26.5907 105.788 27.8556ZM69.4129 17.9258H29.7453C29.39 17.9258 29.1363 17.7855 29.0426 17.6465C28.9083 17.4473 29.0154 17.0821 29.0872 16.8901L31.2244 12.4538C32.1082 10.6434 33.4187 9.87107 35.6065 9.87107H64.6074L69.4129 17.9258ZM3.96429 23.7461H5.94915C7.04206 23.7461 7.9313 24.6353 7.9313 25.7282V27.7517H3.96429V23.7461ZM19.8308 51.5471C15.4555 51.5471 11.8958 47.9874 11.8958 43.6121C11.8958 39.2375 15.4555 35.6783 19.8308 35.6783C24.2047 35.6783 27.7631 39.2375 27.7631 43.6121C27.7631 47.9874 24.2047 51.5471 19.8308 51.5471ZM91.2797 51.5471C86.9043 51.5471 83.3446 47.9874 83.3446 43.6121C83.3446 39.2375 86.9043 35.6783 91.2797 35.6783C95.6535 35.6783 99.2119 39.2375 99.2119 43.6121C99.2119 47.9874 95.6535 51.5471 91.2797 51.5471ZM107.036 41.6305H103.008C102.062 36.0101 97.1641 31.7138 91.2794 31.7138C85.3934 31.7138 80.4948 36.0101 79.5481 41.6305H31.5592C30.6127 36.0101 25.7153 31.7138 19.8306 31.7138C14.5048 31.7138 9.98529 35.2306 8.47193 40.0636C6.62259 39.483 3.96429 38.1352 3.96429 35.1848V31.716H9.91344C11.0081 31.716 11.8956 30.8285 11.8956 29.7339V25.7282C11.8956 22.4495 9.22811 19.7818 5.94915 19.7818H4.8954C5.24599 19.514 5.69519 19.3264 6.24846 19.2196L17.9151 17.814C18.6044 17.7768 19.2364 17.3807 19.5647 16.7526L22.9131 10.3443C25.0949 6.411 28.5344 3.96825 31.8942 3.96775L56.1804 3.96404C56.1814 3.96404 56.1821 3.96404 56.1831 3.96404C58.7641 3.96404 60.3565 4.51829 61.7725 5.90654H35.6062C31.8922 5.90654 29.2193 7.52397 27.6573 10.7234L25.4829 15.2367C25.4641 15.2759 25.4467 15.3153 25.4304 15.3554C24.7748 16.98 24.8908 18.5811 25.7562 19.8638C26.6125 21.1324 28.1036 21.8895 29.745 21.8895H77.2208C77.3625 21.8895 90.5872 21.9091 97.8128 23.4938C97.403 24.3219 97.2075 25.174 97.2075 25.9138V29.8399C97.2075 30.3659 97.4166 30.8701 97.7885 31.242C98.1602 31.6134 98.6641 31.8221 99.1897 31.8221C99.1901 31.8221 99.1906 31.8221 99.1911 31.8221L107.031 31.8193C107.033 31.9028 107.035 31.9861 107.035 32.0708V41.6305H107.036Z" fill="#0E0E0E"/>
<path d="M81.3913 27.858H29.7448C28.6502 27.858 27.7627 28.7455 27.7627 29.8402C27.7627 30.9348 28.6502 31.8223 29.7448 31.8223H81.3913C82.4859 31.8223 83.3735 30.9348 83.3735 29.8402C83.3735 28.7453 82.4859 27.858 81.3913 27.858Z" fill="#0E0E0E"/>
<path d="M23.7166 41.6302C22.6219 41.6302 21.7344 42.5177 21.7344 43.6123C21.7344 44.6631 20.8801 45.5179 19.8298 45.5179C18.779 45.5179 17.9242 44.6631 17.9242 43.6123C17.9242 42.5621 18.779 41.7075 19.8298 41.7075C20.9245 41.7075 21.812 40.82 21.812 39.7254C21.812 38.6307 20.9245 37.7432 19.8298 37.7432C16.5932 37.7432 13.96 40.376 13.96 43.6123C13.96 46.8489 16.5932 49.4822 19.8298 49.4822C23.0659 49.4822 25.6987 46.8489 25.6987 43.6123C25.6987 42.5177 24.8115 41.6302 23.7166 41.6302Z" fill="#0E0E0E"/>
<path d="M95.1658 41.6302C94.0711 41.6302 93.1836 42.5177 93.1836 43.6123C93.1836 44.6631 92.3293 45.5179 91.279 45.5179C90.2283 45.5179 89.3735 44.6631 89.3735 43.6123C89.3735 42.5621 90.2283 41.7075 91.279 41.7075C92.3737 41.7075 93.2612 40.82 93.2612 39.7254C93.2612 38.6307 92.3737 37.7432 91.279 37.7432C88.0424 37.7432 85.4092 40.376 85.4092 43.6123C85.4092 46.8489 88.0424 49.4822 91.279 49.4822C94.5151 49.4822 97.1479 46.8489 97.1479 43.6123C97.1479 42.5177 96.2607 41.6302 95.1658 41.6302Z" fill="#0E0E0E"/>
</svg>
