<svg width="56" height="56" viewBox="0 0 56 56" fill="none" xmlns="http://www.w3.org/2000/svg"><path d="M6.61731 0C2.97562 0 0 2.98286 0 6.62455V48.9855C0 52.6272 2.97562 55.6028 6.61731 55.6028H48.9782C52.6199 55.6028 55.5955 52.6272 55.5955 48.9855V6.62455C55.5955 2.98286 52.6199 0 48.9782 0H6.61731ZM6.61731 2.64982H48.9782C51.1937 2.64982 52.953 4.40913 52.953 6.62455V48.9855C52.953 51.2009 51.1937 52.953 48.9782 52.953H6.61731C4.40189 52.953 2.64982 51.2009 2.64982 48.9855V6.62455C2.64982 4.40913 4.40189 2.64982 6.61731 2.64982ZM29.177 7.94946C28.815 7.94946 28.5037 8.07254 28.243 8.33318C27.9896 8.59382 27.8593 8.90513 27.8593 9.26713C27.8593 9.26713 27.8448 15.7179 27.8304 22.1904C27.8231 25.4267 27.8086 28.6629 27.8086 31.1028C27.8014 33.5354 27.8014 35.0775 27.8014 35.2079C27.8014 37.6115 25.6149 39.5735 23.1316 39.5735C20.6628 39.5735 18.6935 37.6043 18.6935 35.1355C18.6935 32.6666 20.6628 30.6974 23.1316 30.6974C23.2113 30.6974 23.385 30.7263 23.6674 30.7625C23.8556 30.7843 24.0439 30.7698 24.2249 30.7119C24.4059 30.6539 24.5651 30.5598 24.7099 30.4367C24.8475 30.3137 24.9561 30.1616 25.0357 29.9879C25.1154 29.8141 25.1516 29.6331 25.1516 29.4449V23.8846C25.1516 23.5371 25.0285 23.233 24.7896 22.9796C24.5507 22.7262 24.2611 22.5814 23.9135 22.5597C23.7036 22.5524 23.4429 22.5235 23.1316 22.5235C16.1813 22.5235 10.5196 28.1851 10.5196 35.1355C10.5196 42.0858 16.1813 47.7474 23.1316 47.7474C30.082 47.7474 35.7436 42.0858 35.7436 35.1355V23.1606C37.6694 24.6955 40.0659 25.6729 42.7157 25.6729C43.0777 25.6729 43.4252 25.6511 43.751 25.6222C44.0913 25.5932 44.3809 25.4484 44.6053 25.195C44.837 24.9416 44.9528 24.6448 44.9528 24.3045V18.1216C44.9528 17.7741 44.837 17.47 44.5981 17.2166C44.3664 16.9632 44.0696 16.8256 43.7293 16.7967C39.5663 16.4998 36.2432 13.2563 35.8088 9.12957C35.7798 8.79653 35.635 8.51418 35.3816 8.28974C35.1282 8.05806 34.8314 7.94946 34.4983 7.94946H29.177ZM30.5019 10.592H33.521C34.4839 14.9577 37.8939 18.2881 42.3102 19.1279V22.9217C39.4722 22.7769 36.9889 21.3651 35.5264 19.1352C35.3671 18.889 35.1427 18.7225 34.8676 18.6211C34.5925 18.5198 34.3173 18.5125 34.035 18.5922C33.7599 18.6791 33.5282 18.8383 33.3544 19.0773C33.1807 19.3089 33.0938 19.5696 33.0938 19.8664V35.1355C33.0938 40.6523 28.6485 45.0976 23.1316 45.0976C17.6148 45.0976 13.1622 40.6523 13.1622 35.1355C13.1622 29.8431 17.2962 25.6367 22.5018 25.2964V28.1779C18.9107 28.5109 16.0437 31.4576 16.0437 35.1355C16.0437 39.0306 19.2293 42.2234 23.1316 42.2234C27.005 42.2234 30.444 39.1681 30.444 35.2079C30.444 35.273 30.4512 33.5427 30.4512 31.1028C30.4585 28.6702 30.4657 25.4267 30.4729 22.1977C30.4874 16.3912 30.5019 11.7215 30.5019 10.592Z" fill="black"/></svg>
