<svg width="47" height="46" viewBox="0 0 47 46" fill="none" xmlns="http://www.w3.org/2000/svg">
<path d="M23.2596 4.13401C29.3846 4.13401 30.1086 4.15573 32.5267 4.26433C34.7638 4.36569 35.9801 4.73493 36.791 5.06072C37.8553 5.4734 38.6227 5.97296 39.4264 6.77659C40.23 7.58022 40.7223 8.34766 41.1422 9.41193C41.4535 10.2156 41.8228 11.4319 41.9386 13.669C42.0472 16.0944 42.0689 16.8184 42.0689 22.9361C42.0689 29.0611 42.0472 29.7851 41.9386 32.2033C41.8373 34.4332 41.4608 35.6495 41.1422 36.4676C40.7296 37.5319 40.23 38.2921 39.4264 39.103C38.6227 39.9066 37.8553 40.3989 36.791 40.8188C35.9874 41.1301 34.7711 41.4994 32.5267 41.6152C30.1086 41.7238 29.3846 41.7455 23.2596 41.7455C17.1418 41.7455 16.4178 41.7238 13.9997 41.6152C11.7625 41.5139 10.5462 41.1374 9.73534 40.8188C8.67107 40.4061 7.90364 39.9066 7.1 39.103C6.29637 38.2921 5.80405 37.5319 5.38413 36.4676C5.07282 35.664 4.70358 34.4477 4.58774 32.2033C4.47914 29.7851 4.45742 29.0611 4.45742 22.9361C4.45742 16.8184 4.47914 16.0944 4.58774 13.669C4.6891 11.4391 5.05834 10.2228 5.38413 9.41193C5.79681 8.34766 6.29637 7.58022 7.1 6.77659C7.90364 5.97296 8.67107 5.48064 9.73534 5.06072C10.539 4.7494 11.7553 4.37293 13.9997 4.26433C16.4178 4.15573 17.1418 4.13401 23.2596 4.13401ZM23.2596 0C17.0332 0 16.2585 0.0361993 13.8042 0.144799C11.3643 0.253399 9.6919 0.644354 8.23667 1.20907C6.73076 1.79551 5.45653 2.57742 4.17506 3.85165C2.90807 5.12588 2.12616 6.40735 1.54696 7.91326C0.982247 9.36849 0.591289 11.0409 0.47545 13.4808C0.366852 15.9206 0.337891 16.7098 0.337891 22.9289C0.337891 29.1625 0.366852 29.9372 0.47545 32.3843C0.591289 34.8314 0.982247 36.4966 1.54696 37.9518C2.12616 39.4649 2.90807 40.7392 4.18954 42.0134C5.46377 43.2876 6.738 44.0768 8.25115 44.656C9.70638 45.2207 11.3716 45.6117 13.8187 45.7203C16.2585 45.8361 17.0404 45.8651 23.274 45.8651C29.5076 45.8651 30.2751 45.8361 32.7294 45.7203C35.1693 45.6117 36.8417 45.2207 38.2969 44.656C39.8028 44.0768 41.0843 43.2876 42.3585 42.0134C43.6328 40.7392 44.4219 39.4649 45.0011 37.9518C45.5658 36.4966 45.9568 34.8314 46.0654 32.3843C46.1812 29.9444 46.2102 29.1625 46.2102 22.9289C46.2102 16.6953 46.1812 15.9206 46.0654 13.4735C45.9568 11.0264 45.5658 9.36125 45.0011 7.90602C44.4219 6.39287 43.6328 5.11864 42.3585 3.84441C41.0843 2.56294 39.8028 1.78103 38.2969 1.20183C36.8417 0.637114 35.1693 0.246157 32.7294 0.137559C30.2751 0.0361988 29.4932 0 23.2596 0Z" fill="#010101"/>
<path d="M23.9852 11C17.362 11 12 16.371 12 22.9963C12 29.6216 17.3768 35 24 35C30.6232 35 36 29.629 36 22.9963C35.9853 16.371 30.6159 11 23.9852 11ZM23.9852 30.7873C19.6853 30.7873 16.2041 27.305 16.2041 23.0037C16.2041 18.7024 19.6853 15.2201 23.9852 15.2201C28.2926 15.2201 31.7738 18.7024 31.7738 23.0037C31.7812 27.2976 28.2926 30.7873 23.9852 30.7873Z" fill="#010101"/>
<path d="M39 11.0039C39 12.6518 37.6518 14 35.9961 14C34.3482 14 33 12.6518 33 11.0039C33 9.34823 34.3482 8 35.9961 8C37.6518 8 39 9.34034 39 11.0039Z" fill="#010101"/>
</svg>
