<svg width="56" height="56" viewBox="0 0 56 56" fill="none" xmlns="http://www.w3.org/2000/svg"><path d="M41.5084 21.4723C41.2336 19.6527 39.6864 18.3521 37.8861 18.3521H17.1429C15.3426 18.3521 13.7953 19.6747 13.5133 21.4723C13.2603 23.1529 13 25.4913 13 28.3484C13.0217 31.2128 13.2603 33.5512 13.5133 35.2318C13.7953 37.0221 15.3426 38.3521 17.1429 38.3521H37.8644C39.6647 38.3521 41.2336 37.0221 41.4867 35.2318C41.7469 33.5293 42 31.2128 42 28.3484C42 25.4913 41.7686 23.1529 41.5084 21.4723ZM24.438 32.3455V24.3805L31.7838 28.3703L24.438 32.3455Z" fill="black"/><path d="M27.8014 55.6028C12.4817 55.6028 0 43.1428 0 27.8014C0 12.4889 12.4817 0 27.8014 0C43.1139 0 55.5955 12.4889 55.5955 27.8014C55.5955 43.1428 43.1428 55.6028 27.8014 55.6028ZM27.8014 1.52763C13.2998 1.52763 1.52039 13.307 1.52039 27.8014C1.52039 42.303 13.2998 54.0824 27.8014 54.0824C42.2958 54.0824 54.0752 42.303 54.0752 27.8014C54.0752 13.307 42.2958 1.52763 27.8014 1.52763Z" fill="black"/></svg>
