<svg width="52" height="52" viewBox="0 0 52 52" fill="none" xmlns="http://www.w3.org/2000/svg"><path d="M28.4259 18.0051V22.1012H33.575L32.8526 27.7093H28.4259V40.5654H22.8092V27.7093H18V22.1012H22.8092V18.0051C22.8092 13.5612 26.3931 10.5654 30.8198 10.5654C32.7676 10.5654 34 10.8636 34 10.8636V15.6057H30.8198C29.5024 15.6057 28.4259 16.6847 28.4259 18.0051Z" fill="black"/><path d="M25.7163 51.4326C11.5477 51.4326 0 39.9066 0 25.7163C0 11.526 11.5477 0 25.7163 0C39.9066 0 51.4326 11.5477 51.4326 25.7163C51.4326 39.8849 39.9066 51.4326 25.7163 51.4326ZM25.7163 1.41179C12.3007 1.41179 1.40455 12.3079 1.40455 25.7163C1.40455 39.1247 12.3007 50.0208 25.7163 50.0208C39.1247 50.0208 50.0208 39.1247 50.0208 25.7163C50.0208 12.3079 39.1247 1.41179 25.7163 1.41179Z" fill="black"/></svg>
