<svg width="53" height="52" viewBox="0 0 53 52" fill="none" xmlns="http://www.w3.org/2000/svg"><path d="M24.9245 0C11.6681 0 0.902344 10.773 0.902344 24.0221C0.902344 37.2785 11.6681 48.0443 24.9245 48.0443C27.1689 48.0443 29.3698 47.7257 31.4766 47.1248V42.9112C29.8404 44.4895 27.987 45.5031 26.0177 45.7782V37.1264H31.4766V34.94H26.0177V25.1154H31.4766V22.9289H26.0177V13.1043H36.2478C37.2252 15.9206 37.8405 19.1352 37.9781 22.5597L39.122 23.6312L40.2008 24.6375L40.7076 25.1154H46.724C46.6371 26.7806 46.3764 28.424 45.9203 30.0096L47.6869 31.6603C48.5122 29.2204 48.9466 26.6502 48.9466 24.0221C48.9466 10.773 38.1736 0 24.9245 0ZM23.8313 2.27334V10.9178H14.4845C14.8972 10.0201 15.3316 9.16577 15.8094 8.38386C17.9886 4.86524 20.805 2.7005 23.8313 2.27334ZM26.0177 2.27334C29.8404 2.80186 33.1997 6.08156 35.379 10.9178H26.0177V2.27334ZM33.1129 3.77201C36.827 5.27068 40.0125 7.76846 42.38 10.9178H37.7175C36.5229 8.05082 34.9518 5.6182 33.1129 3.77201ZM16.6565 3.81545C15.6646 4.80732 14.7524 5.944 13.956 7.23271C13.2609 8.36938 12.6383 9.60017 12.0953 10.9178H7.47621C9.82195 7.79742 12.9786 5.31412 16.6565 3.81545ZM6.02099 13.1043H11.2989C10.336 16.0799 9.77128 19.4103 9.66992 22.9289H3.11053C3.29153 19.3596 4.33408 16.022 6.02099 13.1043ZM13.6084 13.1043H23.8313V22.9289H11.8564C11.9577 19.3596 12.5804 16.0148 13.6084 13.1043ZM38.5211 13.1043H43.8425C45.5221 16.022 46.5574 19.3596 46.7312 22.9289H40.1791C40.0704 19.4031 39.4913 16.0799 38.5211 13.1043ZM3.11053 25.1154H9.66992C9.77128 28.6412 10.336 31.9644 11.2989 34.94H6.02099C4.33408 32.0295 3.29153 28.6919 3.11053 25.1154ZM11.8564 25.1154H23.8313V34.94H13.6084C12.5804 32.0368 11.9577 28.6919 11.8564 25.1154ZM35.7916 25.1154C35.2124 25.1443 34.7491 25.6222 34.7491 26.2086V47.2262C34.7491 47.6678 35.017 48.066 35.4224 48.2325C35.8351 48.4063 36.3057 48.3122 36.617 48.0008L39.9039 44.7067L42.6479 50.6869C42.894 51.2299 43.5456 51.4688 44.0959 51.2226L48.3095 49.2896C48.8597 49.0434 49.0987 48.3918 48.8453 47.8416L46 41.6297H51.1331C51.5747 41.6297 51.9802 41.3618 52.1467 40.9419C52.3132 40.522 52.2046 40.0514 51.8788 39.7401L36.588 25.4122C36.3708 25.2095 36.0885 25.1009 35.7916 25.1154ZM36.9356 28.7281L48.3674 39.4505H44.4434C44.2696 39.4505 44.1031 39.4867 43.9511 39.5663L43.8352 39.6242C43.3139 39.8849 43.0823 40.5147 43.3357 41.0505L46.4054 47.7547L44.1755 48.7828L41.2361 42.3682C41.0913 42.0424 40.7872 41.8179 40.4397 41.7528C40.0849 41.6876 39.7229 41.8035 39.4695 42.0569L36.9356 44.5908V28.7281ZM7.47621 37.1264H12.0953C12.6383 38.4441 13.2609 39.6821 13.956 40.8116C14.7524 42.1003 15.6646 43.237 16.6565 44.2361C12.9786 42.7302 9.82195 40.2541 7.47621 37.1264ZM14.4845 37.1264H23.8313V45.7709C20.805 45.3438 17.9886 43.179 15.8094 39.6677C15.3316 38.8858 14.8972 38.0242 14.4845 37.1264Z" fill="black"/></svg>
