<svg width="25" height="39" viewBox="0 0 25 39" fill="none" xmlns="http://www.w3.org/2000/svg">
<path d="M12.5 0.28125C6.11438 0.28125 0.90625 5.48938 0.90625 11.875C0.90625 17.6978 5.24097 22.5048 10.8438 23.3135V38.375H14.1562V23.3135C19.759 22.5048 24.0938 17.6978 24.0938 11.875C24.0938 5.48938 18.8856 0.28125 12.5 0.28125ZM12.5 3.59375C17.0935 3.59375 20.7812 7.2815 20.7812 11.875C20.7812 16.4685 17.0935 20.1562 12.5 20.1562C7.9065 20.1562 4.21875 16.4685 4.21875 11.875C4.21875 7.2815 7.9065 3.59375 12.5 3.59375ZM12.5 5.25C8.85754 5.25 5.875 8.23254 5.875 11.875H9.1875C9.1875 10.0247 10.6497 8.5625 12.5 8.5625V5.25Z" fill="black"/>
</svg>
