<svg width="34" height="34" viewBox="0 0 34 34" fill="none" xmlns="http://www.w3.org/2000/svg">
<path fill-rule="evenodd" clip-rule="evenodd" d="M17 0C26.3826 0 34 7.61742 34 17C34 26.3826 26.3826 34 17 34C7.61742 34 0 26.3826 0 17C0 7.61742 7.61742 0 17 0ZM17 1.41667C25.6006 1.41667 32.5833 8.39942 32.5833 17C32.5833 25.6006 25.6006 32.5833 17 32.5833C8.39942 32.5833 1.41667 25.6006 1.41667 17C1.41667 8.39942 8.39942 1.41667 17 1.41667ZM17.7083 25.5H16.2917V12.75H17.7083V25.5ZM17 8.5C17.6602 8.5 18.1971 9.0355 18.1971 9.69708C18.1971 10.3572 17.6602 10.8927 17 10.8927C16.3398 10.8927 15.8029 10.3572 15.8029 9.69708C15.8029 9.0355 16.3398 8.5 17 8.5Z" fill="black"/>
</svg>
